<?xml version="1.0" encoding="UTF-8"?>
<svg xmlns="http://www.w3.org/2000/svg" width="328pt" height="183pt" viewBox="0 0 328 183" data-axe-x="70.0" data-fin-x="258.0"><g transform="translate(0,-4.4)"><line x1="70" x2="70" y1="25.00" y2="87.08" stroke="#E0E7EB" stroke-width="0.25"/><line x1="70" x2="70" y1="99.08" y2="137.86" stroke="#E0E7EB" stroke-width="0.25"/><line x1="117" x2="117" y1="25.00" y2="87.08" stroke="#E0E7EB" stroke-width="0.25"/><line x1="117" x2="117" y1="99.08" y2="137.86" stroke="#E0E7EB" stroke-width="0.25"/><line x1="164" x2="164" y1="25.00" y2="87.08" stroke="#E0E7EB" stroke-width="0.25"/><line x1="164" x2="164" y1="99.08" y2="137.86" stroke="#E0E7EB" stroke-width="0.25"/><line x1="211" x2="211" y1="25.00" y2="137.86" stroke="#E0E7EB" stroke-width="0.25"/><line x1="258" x2="258" y1="25.00" y2="137.86" stroke="#E0E7EB" stroke-width="0.25"/><text x="70.0" y="15.5" dy="0.35em" text-anchor="start" font-family="Poppins-Bold, Poppins" font-weight="700" font-size="7" fill="#0B4862">Versant FP</text><rect x="70.00" y="25.00" width="33.60" height="13" fill="#007777"/><text x="86.8" y="31.5" dy="0.35em" text-anchor="middle" font-family="Poppins-Regular, Poppins" font-size="6.5" fill="#FFFFFF">18</text><rect x="103.60" y="25.00" width="56.64" height="13" fill="#2DC2C2"/><text x="131.9" y="31.5" dy="0.35em" text-anchor="middle" font-family="Poppins-Regular, Poppins" font-size="6.5" fill="#3B4348">30</text><rect x="160.25" y="25.00" width="39.19" height="13" fill="#F6BB81"/><text x="179.8" y="31.5" dy="0.35em" text-anchor="middle" font-family="Poppins-Regular, Poppins" font-size="6.5" fill="#3B4348">21</text><rect x="199.44" y="25.00" width="31.51" height="13" fill="#C24146"/><text x="215.2" y="31.5" dy="0.35em" text-anchor="middle" font-family="Poppins-Regular, Poppins" font-size="6.5" fill="#FFFFFF">17</text><rect x="230.94" y="25.00" width="27.06" height="13" fill="#E0E7EB"/><text x="244.5" y="31.5" dy="0.35em" text-anchor="middle" font-family="Poppins-Regular, Poppins" font-size="6.5" fill="#3B4348">14</text><text x="64.0" y="31.5" dy="0.35em" text-anchor="end" font-family="Poppins-Regular, Poppins" font-size="7" fill="#3B4348">FPE</text><rect x="70.00" y="41.64" width="46.65" height="13" fill="#007777"/><text x="93.3" y="48.1" dy="0.35em" text-anchor="middle" font-family="Poppins-Regular, Poppins" font-size="6.5" fill="#FFFFFF">25</text><rect x="116.65" y="41.64" width="63.23" height="13" fill="#2DC2C2"/><text x="148.3" y="48.1" dy="0.35em" text-anchor="middle" font-family="Poppins-Regular, Poppins" font-size="6.5" fill="#3B4348">34</text><rect x="179.88" y="41.64" width="35.29" height="13" fill="#F6BB81"/><text x="197.5" y="48.1" dy="0.35em" text-anchor="middle" font-family="Poppins-Regular, Poppins" font-size="6.5" fill="#3B4348">19</text><rect x="215.17" y="41.64" width="23.84" height="13" fill="#C24146"/><text x="227.1" y="48.1" dy="0.35em" text-anchor="middle" font-family="Poppins-Regular, Poppins" font-size="6.5" fill="#FFFFFF">13</text><rect x="239.01" y="41.64" width="19.00" height="13" fill="#E0E7EB"/><text x="248.5" y="48.1" dy="0.35em" text-anchor="middle" font-family="Poppins-Regular, Poppins" font-size="6.5" fill="#3B4348">10</text><text x="64.0" y="48.1" dy="0.35em" text-anchor="end" font-family="Poppins-Regular, Poppins" font-size="7" fill="#3B4348">FPT</text><rect x="70.00" y="58.28" width="20.79" height="13" fill="#007777"/><text x="80.4" y="64.8" dy="0.35em" text-anchor="middle" font-family="Poppins-Regular, Poppins" font-size="6.5" fill="#FFFFFF">11</text><rect x="90.79" y="58.28" width="51.30" height="13" fill="#2DC2C2"/><text x="116.4" y="64.8" dy="0.35em" text-anchor="middle" font-family="Poppins-Regular, Poppins" font-size="6.5" fill="#3B4348">27</text><rect x="142.10" y="58.28" width="40.57" height="13" fill="#F6BB81"/><text x="162.4" y="64.8" dy="0.35em" text-anchor="middle" font-family="Poppins-Regular, Poppins" font-size="6.5" fill="#3B4348">22</text><rect x="182.66" y="58.28" width="47.04" height="13" fill="#C24146"/><text x="206.2" y="64.8" dy="0.35em" text-anchor="middle" font-family="Poppins-Regular, Poppins" font-size="6.5" fill="#FFFFFF">25</text><rect x="229.71" y="58.28" width="28.29" height="13" fill="#E0E7EB"/><text x="243.9" y="64.8" dy="0.35em" text-anchor="middle" font-family="Poppins-Regular, Poppins" font-size="6.5" fill="#3B4348">15</text><text x="64.0" y="64.8" dy="0.35em" text-anchor="end" font-family="Poppins-Regular, Poppins" font-size="7" fill="#3B4348">FPH</text><text x="70.0" y="93.1" dy="0.35em" text-anchor="start" font-family="Poppins-Bold, Poppins" font-weight="700" font-size="7" fill="#0B4862">Fonctions d’encadrement</text><rect x="70.00" y="102.58" width="61.43" height="13" fill="#007777"/><text x="100.7" y="109.1" dy="0.35em" text-anchor="middle" font-family="Poppins-Regular, Poppins" font-size="6.5" fill="#FFFFFF">33</text><rect x="131.43" y="102.58" width="69.36" height="13" fill="#2DC2C2"/><text x="166.1" y="109.1" dy="0.35em" text-anchor="middle" font-family="Poppins-Regular, Poppins" font-size="6.5" fill="#3B4348">37</text><rect x="200.79" y="102.58" width="30.11" height="13" fill="#F6BB81"/><text x="215.9" y="109.1" dy="0.35em" text-anchor="middle" font-family="Poppins-Regular, Poppins" font-size="6.5" fill="#3B4348">16</text><rect x="230.91" y="102.58" width="17.81" height="13" fill="#C24146"/><text x="239.8" y="109.1" dy="0.35em" text-anchor="middle" font-family="Poppins-Regular, Poppins" font-size="6.5" fill="#FFFFFF">9</text><rect x="248.72" y="102.58" width="9.28" height="13" fill="#E0E7EB"/><text x="253.4" y="109.1" dy="0.35em" text-anchor="middle" font-family="Poppins-Regular, Poppins" font-size="6.5" fill="#3B4348">5</text><text x="64.0" y="105.4" dy="0.35em" text-anchor="end" font-family="Poppins-Regular, Poppins" font-size="7" fill="#3B4348">Oui tâche</text><text x="64.0" y="112.8" dy="0.35em" text-anchor="end" font-family="Poppins-Regular, Poppins" font-size="7" fill="#3B4348">principale</text><rect x="70.00" y="119.22" width="19.69" height="13" fill="#007777"/><text x="79.8" y="125.7" dy="0.35em" text-anchor="middle" font-family="Poppins-Regular, Poppins" font-size="6.5" fill="#FFFFFF">10</text><rect x="89.69" y="119.22" width="50.18" height="13" fill="#2DC2C2"/><text x="114.8" y="125.7" dy="0.35em" text-anchor="middle" font-family="Poppins-Regular, Poppins" font-size="6.5" fill="#3B4348">27</text><rect x="139.87" y="119.22" width="43.97" height="13" fill="#F6BB81"/><text x="161.8" y="125.7" dy="0.35em" text-anchor="middle" font-family="Poppins-Regular, Poppins" font-size="6.5" fill="#3B4348">23</text><rect x="183.83" y="119.22" width="40.81" height="13" fill="#C24146"/><text x="204.2" y="125.7" dy="0.35em" text-anchor="middle" font-family="Poppins-Regular, Poppins" font-size="6.5" fill="#FFFFFF">22</text><rect x="224.64" y="119.22" width="33.36" height="13" fill="#E0E7EB"/><text x="241.3" y="125.7" dy="0.35em" text-anchor="middle" font-family="Poppins-Regular, Poppins" font-size="6.5" fill="#3B4348">18</text><text x="64.0" y="122.0" dy="0.35em" text-anchor="end" font-family="Poppins-Regular, Poppins" font-size="7" fill="#3B4348">Oui tâche</text><text x="64.0" y="129.4" dy="0.35em" text-anchor="end" font-family="Poppins-Regular, Poppins" font-size="7" fill="#3B4348">secondaire</text><line x1="70" x2="258" y1="137.86" y2="137.86" stroke="#3B4348" stroke-width="0.6"/><line x1="70" x2="70" y1="137.86" y2="140.36" stroke="#3B4348" stroke-width="0.6"/><text x="70.0" y="145.9" dy="0.35em" text-anchor="middle" font-family="Poppins-Regular, Poppins" font-size="7" fill="#3B4348">0</text><line x1="117" x2="117" y1="137.86" y2="140.36" stroke="#3B4348" stroke-width="0.6"/><text x="117.0" y="145.9" dy="0.35em" text-anchor="middle" font-family="Poppins-Regular, Poppins" font-size="7" fill="#3B4348">25</text><line x1="164" x2="164" y1="137.86" y2="140.36" stroke="#3B4348" stroke-width="0.6"/><text x="164.0" y="145.9" dy="0.35em" text-anchor="middle" font-family="Poppins-Regular, Poppins" font-size="7" fill="#3B4348">50</text><line x1="211" x2="211" y1="137.86" y2="140.36" stroke="#3B4348" stroke-width="0.6"/><text x="211.0" y="145.9" dy="0.35em" text-anchor="middle" font-family="Poppins-Regular, Poppins" font-size="7" fill="#3B4348">75</text><line x1="258" x2="258" y1="137.86" y2="140.36" stroke="#3B4348" stroke-width="0.6"/><text x="258.0" y="145.9" dy="0.35em" text-anchor="middle" font-family="Poppins-Regular, Poppins" font-size="7" fill="#3B4348">100</text><rect x="70.0" y="157.9" width="8" height="8" fill="#007777"/><text x="82.0" y="161.9" dy="0.35em" text-anchor="start" font-family="Poppins-Regular, Poppins" font-size="7" fill="#3B4348">Oui, tout à fait</text><rect x="142.8" y="157.9" width="8" height="8" fill="#2DC2C2"/><text x="154.8" y="161.9" dy="0.35em" text-anchor="start" font-family="Poppins-Regular, Poppins" font-size="7" fill="#3B4348">Plutôt oui</text><rect x="199.2" y="157.9" width="8" height="8" fill="#F6BB81"/><text x="211.2" y="161.9" dy="0.35em" text-anchor="start" font-family="Poppins-Regular, Poppins" font-size="7" fill="#3B4348">Plutôt non</text><rect x="70.0" y="170.9" width="8" height="8" fill="#C24146"/><text x="82.0" y="174.9" dy="0.35em" text-anchor="start" font-family="Poppins-Regular, Poppins" font-size="7" fill="#3B4348">Non, pas du tout</text><rect x="151.3" y="170.9" width="8" height="8" fill="#E0E7EB"/><text x="163.3" y="174.9" dy="0.35em" text-anchor="start" font-family="Poppins-Regular, Poppins" font-size="7" fill="#3B4348">Ne sait pas ou autre</text></g></svg>
