<?xml version="1.0" encoding="UTF-8"?>
<svg xmlns="http://www.w3.org/2000/svg" width="471pt" height="122pt" viewBox="0 0 471 122" data-axe-x="70.0" data-fin-x="401.0"><g transform="translate(0,-4.4)"><line x1="70" x2="70" y1="25.00" y2="76.92" stroke="#E0E7EB" stroke-width="0.4"/><line x1="152.75" x2="152.75" y1="25.00" y2="76.92" stroke="#E0E7EB" stroke-width="0.4"/><line x1="235.5" x2="235.5" y1="25.00" y2="76.92" stroke="#E0E7EB" stroke-width="0.4"/><line x1="318.25" x2="318.25" y1="25.00" y2="76.92" stroke="#E0E7EB" stroke-width="0.4"/><line x1="401" x2="401" y1="25.00" y2="76.92" stroke="#E0E7EB" stroke-width="0.4"/><text x="70.0" y="15.5" dy="0.35em" text-anchor="start" font-family="Poppins-Bold, Poppins" font-weight="700" font-size="7" fill="#0B4862">Fonctions d’encadrement</text><rect x="70.00" y="25.00" width="62.04" height="13" fill="#007777"/><text x="101.0" y="31.5" dy="0.35em" text-anchor="middle" font-family="Poppins-Regular, Poppins" font-size="6.5" fill="#FFFFFF">19</text><rect x="132.04" y="25.00" width="108.01" height="13" fill="#2DC2C2"/><text x="186.0" y="31.5" dy="0.35em" text-anchor="middle" font-family="Poppins-Regular, Poppins" font-size="6.5" fill="#3B4348">33</text><rect x="240.04" y="25.00" width="78.80" height="13" fill="#F6BB81"/><text x="279.4" y="31.5" dy="0.35em" text-anchor="middle" font-family="Poppins-Regular, Poppins" font-size="6.5" fill="#3B4348">24</text><rect x="318.85" y="25.00" width="71.82" height="13" fill="#C24146"/><text x="354.8" y="31.5" dy="0.35em" text-anchor="middle" font-family="Poppins-Regular, Poppins" font-size="6.5" fill="#FFFFFF">22</text><rect x="390.66" y="25.00" width="10.34" height="13" fill="#E0E7EB"/><text x="64.0" y="27.8" dy="0.35em" text-anchor="end" font-family="Poppins-Regular, Poppins" font-size="7" fill="#3B4348">Oui tâche</text><text x="64.0" y="35.2" dy="0.35em" text-anchor="end" font-family="Poppins-Regular, Poppins" font-size="7" fill="#3B4348">principale</text><rect x="70.00" y="41.64" width="42.75" height="13" fill="#007777"/><text x="91.4" y="48.1" dy="0.35em" text-anchor="middle" font-family="Poppins-Regular, Poppins" font-size="6.5" fill="#FFFFFF">13</text><rect x="112.75" y="41.64" width="91.10" height="13" fill="#2DC2C2"/><text x="158.3" y="48.1" dy="0.35em" text-anchor="middle" font-family="Poppins-Regular, Poppins" font-size="6.5" fill="#3B4348">28</text><rect x="203.85" y="41.64" width="94.11" height="13" fill="#F6BB81"/><text x="250.9" y="48.1" dy="0.35em" text-anchor="middle" font-family="Poppins-Regular, Poppins" font-size="6.5" fill="#3B4348">28</text><rect x="297.96" y="41.64" width="93.19" height="13" fill="#C24146"/><text x="344.6" y="48.1" dy="0.35em" text-anchor="middle" font-family="Poppins-Regular, Poppins" font-size="6.5" fill="#FFFFFF">28</text><rect x="391.15" y="41.64" width="9.85" height="13" fill="#E0E7EB"/><text x="64.0" y="44.4" dy="0.35em" text-anchor="end" font-family="Poppins-Regular, Poppins" font-size="7" fill="#3B4348">Oui tâche</text><text x="64.0" y="51.8" dy="0.35em" text-anchor="end" font-family="Poppins-Regular, Poppins" font-size="7" fill="#3B4348">secondaire</text><rect x="70.00" y="58.28" width="39.38" height="13" fill="#007777"/><text x="89.7" y="64.8" dy="0.35em" text-anchor="middle" font-family="Poppins-Regular, Poppins" font-size="6.5" fill="#FFFFFF">12</text><rect x="109.38" y="58.28" width="79.25" height="13" fill="#2DC2C2"/><text x="149.0" y="64.8" dy="0.35em" text-anchor="middle" font-family="Poppins-Regular, Poppins" font-size="6.5" fill="#3B4348">24</text><rect x="188.62" y="58.28" width="90.49" height="13" fill="#F6BB81"/><text x="233.9" y="64.8" dy="0.35em" text-anchor="middle" font-family="Poppins-Regular, Poppins" font-size="6.5" fill="#3B4348">27</text><rect x="279.11" y="58.28" width="107.54" height="13" fill="#C24146"/><text x="332.9" y="64.8" dy="0.35em" text-anchor="middle" font-family="Poppins-Regular, Poppins" font-size="6.5" fill="#FFFFFF">32</text><rect x="386.65" y="58.28" width="14.35" height="13" fill="#E0E7EB"/><text x="64.0" y="64.8" dy="0.35em" text-anchor="end" font-family="Poppins-Regular, Poppins" font-size="7" fill="#3B4348">Non</text><line x1="70" x2="401" y1="76.92" y2="76.92" stroke="#3B4348" stroke-width="0.6"/><line x1="70" x2="70" y1="76.92" y2="79.42" stroke="#3B4348" stroke-width="0.6"/><text x="70.0" y="84.9" dy="0.35em" text-anchor="middle" font-family="Poppins-Regular, Poppins" font-size="7" fill="#3B4348">0</text><line x1="152.75" x2="152.75" y1="76.92" y2="79.42" stroke="#3B4348" stroke-width="0.6"/><text x="152.8" y="84.9" dy="0.35em" text-anchor="middle" font-family="Poppins-Regular, Poppins" font-size="7" fill="#3B4348">25</text><line x1="235.5" x2="235.5" y1="76.92" y2="79.42" stroke="#3B4348" stroke-width="0.6"/><text x="235.5" y="84.9" dy="0.35em" text-anchor="middle" font-family="Poppins-Regular, Poppins" font-size="7" fill="#3B4348">50</text><line x1="318.25" x2="318.25" y1="76.92" y2="79.42" stroke="#3B4348" stroke-width="0.6"/><text x="318.3" y="84.9" dy="0.35em" text-anchor="middle" font-family="Poppins-Regular, Poppins" font-size="7" fill="#3B4348">75</text><line x1="401" x2="401" y1="76.92" y2="79.42" stroke="#3B4348" stroke-width="0.6"/><text x="401.0" y="84.9" dy="0.35em" text-anchor="middle" font-family="Poppins-Regular, Poppins" font-size="7" fill="#3B4348">100</text><rect x="70.0" y="96.9" width="8" height="8" fill="#007777"/><text x="82.0" y="100.9" dy="0.35em" text-anchor="start" font-family="Poppins-Regular, Poppins" font-size="7" fill="#3B4348">Tout à fait d’accord</text><rect x="162.3" y="96.9" width="8" height="8" fill="#2DC2C2"/><text x="174.3" y="100.9" dy="0.35em" text-anchor="start" font-family="Poppins-Regular, Poppins" font-size="7" fill="#3B4348">Plutôt d’accord</text><rect x="239.3" y="96.9" width="8" height="8" fill="#F6BB81"/><text x="251.3" y="100.9" dy="0.35em" text-anchor="start" font-family="Poppins-Regular, Poppins" font-size="7" fill="#3B4348">Plutôt pas d’accord</text><rect x="331.3" y="96.9" width="8" height="8" fill="#C24146"/><text x="343.3" y="100.9" dy="0.35em" text-anchor="start" font-family="Poppins-Regular, Poppins" font-size="7" fill="#3B4348">Pas du tout d’accord</text><rect x="70.0" y="109.9" width="8" height="8" fill="#E0E7EB"/><text x="82.0" y="113.9" dy="0.35em" text-anchor="start" font-family="Poppins-Regular, Poppins" font-size="7" fill="#3B4348">Ne sait pas ou autre</text></g></svg>
