<?xml version="1.0" encoding="UTF-8"?>
<svg xmlns="http://www.w3.org/2000/svg" width="290pt" height="135pt" viewBox="0 0 290 135" data-axe-x="43.0" data-fin-x="247.0"><g transform="translate(0,-4.4)"><line x1="43" x2="43" y1="25.00" y2="76.92" stroke="#E0E7EB" stroke-width="0.4"/><line x1="94" x2="94" y1="25.00" y2="76.92" stroke="#E0E7EB" stroke-width="0.4"/><line x1="145" x2="145" y1="25.00" y2="76.92" stroke="#E0E7EB" stroke-width="0.4"/><line x1="196" x2="196" y1="25.00" y2="76.92" stroke="#E0E7EB" stroke-width="0.4"/><line x1="247" x2="247" y1="25.00" y2="76.92" stroke="#E0E7EB" stroke-width="0.4"/><text x="43.0" y="15.5" dy="0.35em" text-anchor="start" font-family="Poppins-Bold, Poppins" font-weight="700" font-size="7" fill="#0B4862">Versant FP</text><rect x="43.00" y="25.00" width="63.93" height="13" fill="#007777"/><text x="75.0" y="31.5" dy="0.35em" text-anchor="middle" font-family="Poppins-Regular, Poppins" font-size="6.5" fill="#FFFFFF">31</text><rect x="106.93" y="25.00" width="107.37" height="13" fill="#2DC2C2"/><text x="160.6" y="31.5" dy="0.35em" text-anchor="middle" font-family="Poppins-Regular, Poppins" font-size="6.5" fill="#3B4348">53</text><rect x="214.30" y="25.00" width="22.04" height="13" fill="#F6BB81"/><text x="225.3" y="31.5" dy="0.35em" text-anchor="middle" font-family="Poppins-Regular, Poppins" font-size="6.5" fill="#3B4348">11</text><rect x="236.35" y="25.00" width="4.04" height="13" fill="#C24146"/><rect x="240.39" y="25.00" width="6.61" height="13" fill="#E0E7EB"/><text x="37.0" y="31.5" dy="0.35em" text-anchor="end" font-family="Poppins-Regular, Poppins" font-size="7" fill="#3B4348">FPE</text><rect x="43.00" y="41.64" width="61.85" height="13" fill="#007777"/><text x="73.9" y="48.1" dy="0.35em" text-anchor="middle" font-family="Poppins-Regular, Poppins" font-size="6.5" fill="#FFFFFF">30</text><rect x="104.85" y="41.64" width="109.81" height="13" fill="#2DC2C2"/><text x="159.8" y="48.1" dy="0.35em" text-anchor="middle" font-family="Poppins-Regular, Poppins" font-size="6.5" fill="#3B4348">54</text><rect x="214.66" y="41.64" width="20.35" height="13" fill="#F6BB81"/><text x="224.8" y="48.1" dy="0.35em" text-anchor="middle" font-family="Poppins-Regular, Poppins" font-size="6.5" fill="#3B4348">10</text><rect x="235.01" y="41.64" width="6.65" height="13" fill="#C24146"/><rect x="241.66" y="41.64" width="5.34" height="13" fill="#E0E7EB"/><text x="37.0" y="48.1" dy="0.35em" text-anchor="end" font-family="Poppins-Regular, Poppins" font-size="7" fill="#3B4348">FPT</text><rect x="43.00" y="58.28" width="54.89" height="13" fill="#007777"/><text x="70.4" y="64.8" dy="0.35em" text-anchor="middle" font-family="Poppins-Regular, Poppins" font-size="6.5" fill="#FFFFFF">27</text><rect x="97.89" y="58.28" width="118.12" height="13" fill="#2DC2C2"/><text x="157.0" y="64.8" dy="0.35em" text-anchor="middle" font-family="Poppins-Regular, Poppins" font-size="6.5" fill="#3B4348">58</text><rect x="216.02" y="58.28" width="25.73" height="13" fill="#F6BB81"/><text x="228.9" y="64.8" dy="0.35em" text-anchor="middle" font-family="Poppins-Regular, Poppins" font-size="6.5" fill="#3B4348">13</text><rect x="241.74" y="58.28" width="3.08" height="13" fill="#C24146"/><rect x="244.83" y="58.28" width="2.17" height="13" fill="#E0E7EB"/><text x="37.0" y="64.8" dy="0.35em" text-anchor="end" font-family="Poppins-Regular, Poppins" font-size="7" fill="#3B4348">FPH</text><line x1="43" x2="247" y1="76.92" y2="76.92" stroke="#3B4348" stroke-width="0.6"/><line x1="43" x2="43" y1="76.92" y2="79.42" stroke="#3B4348" stroke-width="0.6"/><text x="43.0" y="84.9" dy="0.35em" text-anchor="middle" font-family="Poppins-Regular, Poppins" font-size="7" fill="#3B4348">0</text><line x1="94" x2="94" y1="76.92" y2="79.42" stroke="#3B4348" stroke-width="0.6"/><text x="94.0" y="84.9" dy="0.35em" text-anchor="middle" font-family="Poppins-Regular, Poppins" font-size="7" fill="#3B4348">25</text><line x1="145" x2="145" y1="76.92" y2="79.42" stroke="#3B4348" stroke-width="0.6"/><text x="145.0" y="84.9" dy="0.35em" text-anchor="middle" font-family="Poppins-Regular, Poppins" font-size="7" fill="#3B4348">50</text><line x1="196" x2="196" y1="76.92" y2="79.42" stroke="#3B4348" stroke-width="0.6"/><text x="196.0" y="84.9" dy="0.35em" text-anchor="middle" font-family="Poppins-Regular, Poppins" font-size="7" fill="#3B4348">75</text><line x1="247" x2="247" y1="76.92" y2="79.42" stroke="#3B4348" stroke-width="0.6"/><text x="247.0" y="84.9" dy="0.35em" text-anchor="middle" font-family="Poppins-Regular, Poppins" font-size="7" fill="#3B4348">100</text><rect x="43.0" y="96.9" width="8" height="8" fill="#007777"/><text x="55.0" y="100.9" dy="0.35em" text-anchor="start" font-family="Poppins-Regular, Poppins" font-size="7" fill="#3B4348">Tout à fait d’accord</text><rect x="135.3" y="96.9" width="8" height="8" fill="#2DC2C2"/><text x="147.3" y="100.9" dy="0.35em" text-anchor="start" font-family="Poppins-Regular, Poppins" font-size="7" fill="#3B4348">Plutôt d’accord</text><rect x="43.0" y="109.9" width="8" height="8" fill="#F6BB81"/><text x="55.0" y="113.9" dy="0.35em" text-anchor="start" font-family="Poppins-Regular, Poppins" font-size="7" fill="#3B4348">Plutôt pas d’accord</text><rect x="135.0" y="109.9" width="8" height="8" fill="#C24146"/><text x="147.0" y="113.9" dy="0.35em" text-anchor="start" font-family="Poppins-Regular, Poppins" font-size="7" fill="#3B4348">Pas du tout d’accord</text><rect x="43.0" y="122.9" width="8" height="8" fill="#E0E7EB"/><text x="55.0" y="126.9" dy="0.35em" text-anchor="start" font-family="Poppins-Regular, Poppins" font-size="7" fill="#3B4348">Ne sait pas ou autre</text></g></svg>
