<?xml version="1.0" encoding="UTF-8"?>
<svg xmlns="http://www.w3.org/2000/svg" width="352pt" height="277pt" viewBox="0 0 352 277" data-axe-x="60.0" data-fin-x="292.0"><g transform="translate(0,-3.9)"><line x1="60" x2="60" y1="24.00" y2="96.28" stroke="#E0E7EB" stroke-width="0.4"/><line x1="60" x2="60" y1="108.28" y2="152.84" stroke="#E0E7EB" stroke-width="0.4"/><line x1="60" x2="60" y1="164.84" y2="231.28" stroke="#E0E7EB" stroke-width="0.4"/><line x1="118" x2="118" y1="24.00" y2="152.84" stroke="#E0E7EB" stroke-width="0.4"/><line x1="118" x2="118" y1="164.84" y2="231.28" stroke="#E0E7EB" stroke-width="0.4"/><line x1="176" x2="176" y1="24.00" y2="231.28" stroke="#E0E7EB" stroke-width="0.4"/><line x1="234" x2="234" y1="24.00" y2="231.28" stroke="#E0E7EB" stroke-width="0.4"/><line x1="292" x2="292" y1="24.00" y2="231.28" stroke="#E0E7EB" stroke-width="0.4"/><text x="60.0" y="15.0" dy="0.35em" text-anchor="start" font-family="Poppins-Bold, Poppins" font-weight="700" font-size="7" fill="#0B4862">Tranche d’âge</text><rect x="60.00" y="24.00" width="62.44" height="12" fill="#007777"/><text x="91.2" y="30.0" dy="0.35em" text-anchor="middle" font-family="Poppins-Regular, Poppins" font-size="6.5" fill="#FFFFFF">27</text><rect x="122.44" y="24.00" width="79.40" height="12" fill="#2DC2C2"/><text x="162.1" y="30.0" dy="0.35em" text-anchor="middle" font-family="Poppins-Regular, Poppins" font-size="6.5" fill="#3B4348">34</text><rect x="201.85" y="24.00" width="56.69" height="12" fill="#F6BB81"/><text x="230.2" y="30.0" dy="0.35em" text-anchor="middle" font-family="Poppins-Regular, Poppins" font-size="6.5" fill="#3B4348">24</text><rect x="258.54" y="24.00" width="23.18" height="12" fill="#C24146"/><text x="270.1" y="30.0" dy="0.35em" text-anchor="middle" font-family="Poppins-Regular, Poppins" font-size="6.5" fill="#FFFFFF">10</text><rect x="281.72" y="24.00" width="10.28" height="12" fill="#E0E7EB"/><text x="54.0" y="30.0" dy="0.35em" text-anchor="end" font-family="Poppins-Regular, Poppins" font-size="7" fill="#3B4348">&lt;35</text><rect x="60.00" y="39.36" width="66.35" height="12" fill="#007777"/><text x="93.2" y="45.4" dy="0.35em" text-anchor="middle" font-family="Poppins-Regular, Poppins" font-size="6.5" fill="#FFFFFF">29</text><rect x="126.35" y="39.36" width="82.07" height="12" fill="#2DC2C2"/><text x="167.4" y="45.4" dy="0.35em" text-anchor="middle" font-family="Poppins-Regular, Poppins" font-size="6.5" fill="#3B4348">35</text><rect x="208.42" y="39.36" width="53.06" height="12" fill="#F6BB81"/><text x="234.9" y="45.4" dy="0.35em" text-anchor="middle" font-family="Poppins-Regular, Poppins" font-size="6.5" fill="#3B4348">23</text><rect x="261.47" y="39.36" width="22.64" height="12" fill="#C24146"/><text x="272.8" y="45.4" dy="0.35em" text-anchor="middle" font-family="Poppins-Regular, Poppins" font-size="6.5" fill="#FFFFFF">10</text><rect x="284.12" y="39.36" width="7.89" height="12" fill="#E0E7EB"/><text x="54.0" y="45.4" dy="0.35em" text-anchor="end" font-family="Poppins-Regular, Poppins" font-size="7" fill="#3B4348">35-44</text><rect x="60.00" y="54.72" width="67.12" height="12" fill="#007777"/><text x="93.6" y="60.7" dy="0.35em" text-anchor="middle" font-family="Poppins-Regular, Poppins" font-size="6.5" fill="#FFFFFF">29</text><rect x="127.12" y="54.72" width="86.91" height="12" fill="#2DC2C2"/><text x="170.6" y="60.7" dy="0.35em" text-anchor="middle" font-family="Poppins-Regular, Poppins" font-size="6.5" fill="#3B4348">37</text><rect x="214.03" y="54.72" width="46.55" height="12" fill="#F6BB81"/><text x="237.3" y="60.7" dy="0.35em" text-anchor="middle" font-family="Poppins-Regular, Poppins" font-size="6.5" fill="#3B4348">20</text><rect x="260.58" y="54.72" width="24.98" height="12" fill="#C24146"/><text x="273.1" y="60.7" dy="0.35em" text-anchor="middle" font-family="Poppins-Regular, Poppins" font-size="6.5" fill="#FFFFFF">11</text><rect x="285.56" y="54.72" width="6.44" height="12" fill="#E0E7EB"/><text x="54.0" y="60.7" dy="0.35em" text-anchor="end" font-family="Poppins-Regular, Poppins" font-size="7" fill="#3B4348">45-54</text><rect x="60.00" y="70.08" width="69.37" height="12" fill="#007777"/><text x="94.7" y="76.1" dy="0.35em" text-anchor="middle" font-family="Poppins-Regular, Poppins" font-size="6.5" fill="#FFFFFF">30</text><rect x="129.37" y="70.08" width="85.29" height="12" fill="#2DC2C2"/><text x="172.0" y="76.1" dy="0.35em" text-anchor="middle" font-family="Poppins-Regular, Poppins" font-size="6.5" fill="#3B4348">37</text><rect x="214.67" y="70.08" width="44.88" height="12" fill="#F6BB81"/><text x="237.1" y="76.1" dy="0.35em" text-anchor="middle" font-family="Poppins-Regular, Poppins" font-size="6.5" fill="#3B4348">19</text><rect x="259.55" y="70.08" width="23.78" height="12" fill="#C24146"/><text x="271.4" y="76.1" dy="0.35em" text-anchor="middle" font-family="Poppins-Regular, Poppins" font-size="6.5" fill="#FFFFFF">10</text><rect x="283.32" y="70.08" width="8.68" height="12" fill="#E0E7EB"/><text x="54.0" y="76.1" dy="0.35em" text-anchor="end" font-family="Poppins-Regular, Poppins" font-size="7" fill="#3B4348">55+</text><text x="60.0" y="102.3" dy="0.35em" text-anchor="start" font-family="Poppins-Bold, Poppins" font-weight="700" font-size="7" fill="#0B4862">Sexe</text><rect x="60.00" y="111.28" width="78.71" height="12" fill="#007777"/><text x="99.4" y="117.3" dy="0.35em" text-anchor="middle" font-family="Poppins-Regular, Poppins" font-size="6.5" fill="#FFFFFF">34</text><rect x="138.71" y="111.28" width="87.33" height="12" fill="#2DC2C2"/><text x="182.4" y="117.3" dy="0.35em" text-anchor="middle" font-family="Poppins-Regular, Poppins" font-size="6.5" fill="#3B4348">38</text><rect x="226.04" y="111.28" width="41.40" height="12" fill="#F6BB81"/><text x="246.7" y="117.3" dy="0.35em" text-anchor="middle" font-family="Poppins-Regular, Poppins" font-size="6.5" fill="#3B4348">18</text><rect x="267.45" y="111.28" width="18.20" height="12" fill="#C24146"/><text x="276.5" y="117.3" dy="0.35em" text-anchor="middle" font-family="Poppins-Regular, Poppins" font-size="6.5" fill="#FFFFFF">8</text><rect x="285.65" y="111.28" width="6.36" height="12" fill="#E0E7EB"/><text x="54.0" y="117.3" dy="0.35em" text-anchor="end" font-family="Poppins-Regular, Poppins" font-size="7" fill="#3B4348">Homme</text><rect x="60.00" y="126.64" width="60.50" height="12" fill="#007777"/><text x="90.3" y="132.6" dy="0.35em" text-anchor="middle" font-family="Poppins-Regular, Poppins" font-size="6.5" fill="#FFFFFF">26</text><rect x="120.50" y="126.64" width="81.95" height="12" fill="#2DC2C2"/><text x="161.5" y="132.6" dy="0.35em" text-anchor="middle" font-family="Poppins-Regular, Poppins" font-size="6.5" fill="#3B4348">35</text><rect x="202.45" y="126.64" width="53.49" height="12" fill="#F6BB81"/><text x="229.2" y="132.6" dy="0.35em" text-anchor="middle" font-family="Poppins-Regular, Poppins" font-size="6.5" fill="#3B4348">23</text><rect x="255.93" y="126.64" width="26.33" height="12" fill="#C24146"/><text x="269.1" y="132.6" dy="0.35em" text-anchor="middle" font-family="Poppins-Regular, Poppins" font-size="6.5" fill="#FFFFFF">11</text><rect x="282.26" y="126.64" width="9.74" height="12" fill="#E0E7EB"/><text x="54.0" y="132.6" dy="0.35em" text-anchor="end" font-family="Poppins-Regular, Poppins" font-size="7" fill="#3B4348">Femme</text><text x="60.0" y="158.8" dy="0.35em" text-anchor="start" font-family="Poppins-Bold, Poppins" font-weight="700" font-size="7" fill="#0B4862">Niveau de diplôme</text><rect x="60.00" y="167.84" width="71.95" height="12" fill="#007777"/><text x="96.0" y="173.8" dy="0.35em" text-anchor="middle" font-family="Poppins-Regular, Poppins" font-size="6.5" fill="#FFFFFF">31</text><rect x="131.95" y="167.84" width="78.60" height="12" fill="#2DC2C2"/><text x="171.3" y="173.8" dy="0.35em" text-anchor="middle" font-family="Poppins-Regular, Poppins" font-size="6.5" fill="#3B4348">34</text><rect x="210.56" y="167.84" width="44.93" height="12" fill="#F6BB81"/><text x="233.0" y="173.8" dy="0.35em" text-anchor="middle" font-family="Poppins-Regular, Poppins" font-size="6.5" fill="#3B4348">19</text><rect x="255.49" y="167.84" width="27.59" height="12" fill="#C24146"/><text x="269.3" y="173.8" dy="0.35em" text-anchor="middle" font-family="Poppins-Regular, Poppins" font-size="6.5" fill="#FFFFFF">12</text><rect x="283.08" y="167.84" width="8.92" height="12" fill="#E0E7EB"/><text x="54.0" y="170.1" dy="0.35em" text-anchor="end" font-family="Poppins-Regular, Poppins" font-size="7" fill="#3B4348">Bac ou</text><text x="54.0" y="177.5" dy="0.35em" text-anchor="end" font-family="Poppins-Regular, Poppins" font-size="7" fill="#3B4348">moins</text><rect x="60.00" y="183.20" width="67.36" height="12" fill="#007777"/><text x="93.7" y="189.2" dy="0.35em" text-anchor="middle" font-family="Poppins-Regular, Poppins" font-size="6.5" fill="#FFFFFF">29</text><rect x="127.36" y="183.20" width="86.42" height="12" fill="#2DC2C2"/><text x="170.6" y="189.2" dy="0.35em" text-anchor="middle" font-family="Poppins-Regular, Poppins" font-size="6.5" fill="#3B4348">37</text><rect x="213.79" y="183.20" width="47.12" height="12" fill="#F6BB81"/><text x="237.3" y="189.2" dy="0.35em" text-anchor="middle" font-family="Poppins-Regular, Poppins" font-size="6.5" fill="#3B4348">20</text><rect x="260.91" y="183.20" width="23.76" height="12" fill="#C24146"/><text x="272.8" y="189.2" dy="0.35em" text-anchor="middle" font-family="Poppins-Regular, Poppins" font-size="6.5" fill="#FFFFFF">10</text><rect x="284.67" y="183.20" width="7.33" height="12" fill="#E0E7EB"/><text x="54.0" y="189.2" dy="0.35em" text-anchor="end" font-family="Poppins-Regular, Poppins" font-size="7" fill="#3B4348">Bac+2</text><rect x="60.00" y="198.56" width="56.17" height="12" fill="#007777"/><text x="88.1" y="204.6" dy="0.35em" text-anchor="middle" font-family="Poppins-Regular, Poppins" font-size="6.5" fill="#FFFFFF">24</text><rect x="116.17" y="198.56" width="85.38" height="12" fill="#2DC2C2"/><text x="158.9" y="204.6" dy="0.35em" text-anchor="middle" font-family="Poppins-Regular, Poppins" font-size="6.5" fill="#3B4348">37</text><rect x="201.55" y="198.56" width="59.95" height="12" fill="#F6BB81"/><text x="231.5" y="204.6" dy="0.35em" text-anchor="middle" font-family="Poppins-Regular, Poppins" font-size="6.5" fill="#3B4348">26</text><rect x="261.50" y="198.56" width="22.21" height="12" fill="#C24146"/><text x="272.6" y="204.6" dy="0.35em" text-anchor="middle" font-family="Poppins-Regular, Poppins" font-size="6.5" fill="#FFFFFF">10</text><rect x="283.71" y="198.56" width="8.29" height="12" fill="#E0E7EB"/><text x="54.0" y="204.6" dy="0.35em" text-anchor="end" font-family="Poppins-Regular, Poppins" font-size="7" fill="#3B4348">Bac+3/4</text><rect x="60.00" y="213.92" width="65.97" height="12" fill="#007777"/><text x="93.0" y="219.9" dy="0.35em" text-anchor="middle" font-family="Poppins-Regular, Poppins" font-size="6.5" fill="#FFFFFF">28</text><rect x="125.97" y="213.92" width="88.86" height="12" fill="#2DC2C2"/><text x="170.4" y="219.9" dy="0.35em" text-anchor="middle" font-family="Poppins-Regular, Poppins" font-size="6.5" fill="#3B4348">38</text><rect x="214.83" y="213.92" width="50.33" height="12" fill="#F6BB81"/><text x="240.0" y="219.9" dy="0.35em" text-anchor="middle" font-family="Poppins-Regular, Poppins" font-size="6.5" fill="#3B4348">22</text><rect x="265.16" y="213.92" width="19.24" height="12" fill="#C24146"/><text x="274.8" y="219.9" dy="0.35em" text-anchor="middle" font-family="Poppins-Regular, Poppins" font-size="6.5" fill="#FFFFFF">8</text><rect x="284.40" y="213.92" width="7.60" height="12" fill="#E0E7EB"/><text x="54.0" y="216.2" dy="0.35em" text-anchor="end" font-family="Poppins-Regular, Poppins" font-size="7" fill="#3B4348">Bac+5</text><text x="54.0" y="223.6" dy="0.35em" text-anchor="end" font-family="Poppins-Regular, Poppins" font-size="7" fill="#3B4348">ou plus</text><line x1="60" x2="292" y1="231.28000000000006" y2="231.28000000000006" stroke="#3B4348" stroke-width="0.6"/><line x1="60" x2="60" y1="231.28000000000006" y2="233.78000000000006" stroke="#3B4348" stroke-width="0.6"/><text x="60.0" y="239.3" dy="0.35em" text-anchor="middle" font-family="Poppins-Regular, Poppins" font-size="7" fill="#3B4348">0</text><line x1="118" x2="118" y1="231.28000000000006" y2="233.78000000000006" stroke="#3B4348" stroke-width="0.6"/><text x="118.0" y="239.3" dy="0.35em" text-anchor="middle" font-family="Poppins-Regular, Poppins" font-size="7" fill="#3B4348">25</text><line x1="176" x2="176" y1="231.28000000000006" y2="233.78000000000006" stroke="#3B4348" stroke-width="0.6"/><text x="176.0" y="239.3" dy="0.35em" text-anchor="middle" font-family="Poppins-Regular, Poppins" font-size="7" fill="#3B4348">50</text><line x1="234" x2="234" y1="231.28000000000006" y2="233.78000000000006" stroke="#3B4348" stroke-width="0.6"/><text x="234.0" y="239.3" dy="0.35em" text-anchor="middle" font-family="Poppins-Regular, Poppins" font-size="7" fill="#3B4348">75</text><line x1="292" x2="292" y1="231.28000000000006" y2="233.78000000000006" stroke="#3B4348" stroke-width="0.6"/><text x="292.0" y="239.3" dy="0.35em" text-anchor="middle" font-family="Poppins-Regular, Poppins" font-size="7" fill="#3B4348">100</text><rect x="60.0" y="251.3" width="8" height="8" fill="#007777"/><text x="72.0" y="255.3" dy="0.35em" text-anchor="start" font-family="Poppins-Regular, Poppins" font-size="7" fill="#3B4348">Oui</text><rect x="95.7" y="251.3" width="8" height="8" fill="#2DC2C2"/><text x="107.7" y="255.3" dy="0.35em" text-anchor="start" font-family="Poppins-Regular, Poppins" font-size="7" fill="#3B4348">Plutôt oui</text><rect x="152.1" y="251.3" width="8" height="8" fill="#F6BB81"/><text x="164.1" y="255.3" dy="0.35em" text-anchor="start" font-family="Poppins-Regular, Poppins" font-size="7" fill="#3B4348">Plutôt non</text><rect x="211.2" y="251.3" width="8" height="8" fill="#C24146"/><text x="223.2" y="255.3" dy="0.35em" text-anchor="start" font-family="Poppins-Regular, Poppins" font-size="7" fill="#3B4348">Non</text><rect x="60.0" y="264.3" width="8" height="8" fill="#E0E7EB"/><text x="72.0" y="268.3" dy="0.35em" text-anchor="start" font-family="Poppins-Regular, Poppins" font-size="7" fill="#3B4348">Ne sait pas ou autre</text></g></svg>
