<?xml version="1.0" encoding="UTF-8"?>
<svg xmlns="http://www.w3.org/2000/svg" width="328pt" height="265pt" viewBox="0 0 328 265" data-axe-x="60.0" data-fin-x="268.0"><g transform="translate(0,-4.0)"><line x1="60" x2="60" y1="25.00" y2="70.44" stroke="#E0E7EB" stroke-width="0.25"/><line x1="60" x2="60" y1="82.44" y2="164.66" stroke="#E0E7EB" stroke-width="0.25"/><line x1="60" x2="60" y1="176.66" y2="232.08" stroke="#E0E7EB" stroke-width="0.25"/><line x1="112" x2="112" y1="25.00" y2="70.44" stroke="#E0E7EB" stroke-width="0.25"/><line x1="112" x2="112" y1="82.44" y2="232.08" stroke="#E0E7EB" stroke-width="0.25"/><line x1="164" x2="164" y1="25.00" y2="232.08" stroke="#E0E7EB" stroke-width="0.25"/><line x1="216" x2="216" y1="25.00" y2="232.08" stroke="#E0E7EB" stroke-width="0.25"/><line x1="268" x2="268" y1="25.00" y2="232.08" stroke="#E0E7EB" stroke-width="0.25"/><text x="60.0" y="15.5" dy="0.35em" text-anchor="start" font-family="Poppins-Bold, Poppins" font-weight="700" font-size="7" fill="#0B4862">Sexe</text><rect x="60.00" y="25.00" width="136.57" height="13" fill="#007777"/><text x="128.3" y="31.5" dy="0.35em" text-anchor="middle" font-family="Poppins-Regular, Poppins" font-size="6.5" fill="#FFFFFF">66</text><rect x="196.57" y="25.00" width="32.82" height="13" fill="#C24146"/><text x="213.0" y="31.5" dy="0.35em" text-anchor="middle" font-family="Poppins-Regular, Poppins" font-size="6.5" fill="#FFFFFF">16</text><rect x="229.39" y="25.00" width="38.61" height="13" fill="#E0E7EB"/><text x="248.7" y="31.5" dy="0.35em" text-anchor="middle" font-family="Poppins-Regular, Poppins" font-size="6.5" fill="#3B4348">19</text><text x="54.0" y="31.5" dy="0.35em" text-anchor="end" font-family="Poppins-Regular, Poppins" font-size="7" fill="#3B4348">Homme</text><rect x="60.00" y="41.64" width="119.28" height="13" fill="#007777"/><text x="119.6" y="48.1" dy="0.35em" text-anchor="middle" font-family="Poppins-Regular, Poppins" font-size="6.5" fill="#FFFFFF">57</text><rect x="179.28" y="41.64" width="37.76" height="13" fill="#C24146"/><text x="198.2" y="48.1" dy="0.35em" text-anchor="middle" font-family="Poppins-Regular, Poppins" font-size="6.5" fill="#FFFFFF">18</text><rect x="217.04" y="41.64" width="50.96" height="13" fill="#E0E7EB"/><text x="242.5" y="48.1" dy="0.35em" text-anchor="middle" font-family="Poppins-Regular, Poppins" font-size="6.5" fill="#3B4348">24</text><text x="54.0" y="48.1" dy="0.35em" text-anchor="end" font-family="Poppins-Regular, Poppins" font-size="7" fill="#3B4348">Femme</text><text x="60.0" y="76.4" dy="0.35em" text-anchor="start" font-family="Poppins-Bold, Poppins" font-weight="700" font-size="7" fill="#0B4862">Niveau de diplôme</text><rect x="60.00" y="85.94" width="114.57" height="13" fill="#007777"/><text x="117.3" y="92.4" dy="0.35em" text-anchor="middle" font-family="Poppins-Regular, Poppins" font-size="6.5" fill="#FFFFFF">55</text><rect x="174.57" y="85.94" width="46.39" height="13" fill="#C24146"/><text x="197.8" y="92.4" dy="0.35em" text-anchor="middle" font-family="Poppins-Regular, Poppins" font-size="6.5" fill="#FFFFFF">22</text><rect x="220.95" y="85.94" width="47.05" height="13" fill="#E0E7EB"/><text x="244.5" y="92.4" dy="0.35em" text-anchor="middle" font-family="Poppins-Regular, Poppins" font-size="6.5" fill="#3B4348">23</text><text x="54.0" y="88.7" dy="0.35em" text-anchor="end" font-family="Poppins-Regular, Poppins" font-size="7" fill="#3B4348">Bac ou</text><text x="54.0" y="96.1" dy="0.35em" text-anchor="end" font-family="Poppins-Regular, Poppins" font-size="7" fill="#3B4348">moins</text><rect x="60.00" y="102.58" width="125.56" height="13" fill="#007777"/><text x="122.8" y="109.1" dy="0.35em" text-anchor="middle" font-family="Poppins-Regular, Poppins" font-size="6.5" fill="#FFFFFF">60</text><rect x="185.56" y="102.58" width="34.62" height="13" fill="#C24146"/><text x="202.9" y="109.1" dy="0.35em" text-anchor="middle" font-family="Poppins-Regular, Poppins" font-size="6.5" fill="#FFFFFF">17</text><rect x="220.18" y="102.58" width="47.82" height="13" fill="#E0E7EB"/><text x="244.1" y="109.1" dy="0.35em" text-anchor="middle" font-family="Poppins-Regular, Poppins" font-size="6.5" fill="#3B4348">23</text><text x="54.0" y="109.1" dy="0.35em" text-anchor="end" font-family="Poppins-Regular, Poppins" font-size="7" fill="#3B4348">Bac+2</text><rect x="60.00" y="119.22" width="139.15" height="13" fill="#007777"/><text x="129.6" y="125.7" dy="0.35em" text-anchor="middle" font-family="Poppins-Regular, Poppins" font-size="6.5" fill="#FFFFFF">67</text><rect x="199.15" y="119.22" width="26.25" height="13" fill="#C24146"/><text x="212.3" y="125.7" dy="0.35em" text-anchor="middle" font-family="Poppins-Regular, Poppins" font-size="6.5" fill="#FFFFFF">13</text><rect x="225.40" y="119.22" width="42.60" height="13" fill="#E0E7EB"/><text x="246.7" y="125.7" dy="0.35em" text-anchor="middle" font-family="Poppins-Regular, Poppins" font-size="6.5" fill="#3B4348">20</text><text x="54.0" y="125.7" dy="0.35em" text-anchor="end" font-family="Poppins-Regular, Poppins" font-size="7" fill="#3B4348">Bac+3/4</text><rect x="60.00" y="135.86" width="136.77" height="13" fill="#007777"/><text x="128.4" y="142.4" dy="0.35em" text-anchor="middle" font-family="Poppins-Regular, Poppins" font-size="6.5" fill="#FFFFFF">66</text><rect x="196.77" y="135.86" width="27.51" height="13" fill="#C24146"/><text x="210.5" y="142.4" dy="0.35em" text-anchor="middle" font-family="Poppins-Regular, Poppins" font-size="6.5" fill="#FFFFFF">13</text><rect x="224.29" y="135.86" width="43.71" height="13" fill="#E0E7EB"/><text x="246.1" y="142.4" dy="0.35em" text-anchor="middle" font-family="Poppins-Regular, Poppins" font-size="6.5" fill="#3B4348">21</text><text x="54.0" y="138.7" dy="0.35em" text-anchor="end" font-family="Poppins-Regular, Poppins" font-size="7" fill="#3B4348">Bac+5</text><text x="54.0" y="146.1" dy="0.35em" text-anchor="end" font-family="Poppins-Regular, Poppins" font-size="7" fill="#3B4348">ou plus</text><text x="60.0" y="170.7" dy="0.35em" text-anchor="start" font-family="Poppins-Bold, Poppins" font-weight="700" font-size="7" fill="#0B4862">Versant FP</text><rect x="60.00" y="180.16" width="118.90" height="13" fill="#007777"/><text x="119.4" y="186.7" dy="0.35em" text-anchor="middle" font-family="Poppins-Regular, Poppins" font-size="6.5" fill="#FFFFFF">57</text><rect x="178.90" y="180.16" width="39.93" height="13" fill="#C24146"/><text x="198.9" y="186.7" dy="0.35em" text-anchor="middle" font-family="Poppins-Regular, Poppins" font-size="6.5" fill="#FFFFFF">19</text><rect x="218.82" y="180.16" width="49.18" height="13" fill="#E0E7EB"/><text x="243.4" y="186.7" dy="0.35em" text-anchor="middle" font-family="Poppins-Regular, Poppins" font-size="6.5" fill="#3B4348">24</text><text x="54.0" y="186.7" dy="0.35em" text-anchor="end" font-family="Poppins-Regular, Poppins" font-size="7" fill="#3B4348">FPE</text><rect x="60.00" y="196.80" width="127.97" height="13" fill="#007777"/><text x="124.0" y="203.3" dy="0.35em" text-anchor="middle" font-family="Poppins-Regular, Poppins" font-size="6.5" fill="#FFFFFF">62</text><rect x="187.97" y="196.80" width="37.49" height="13" fill="#C24146"/><text x="206.7" y="203.3" dy="0.35em" text-anchor="middle" font-family="Poppins-Regular, Poppins" font-size="6.5" fill="#FFFFFF">18</text><rect x="225.46" y="196.80" width="42.54" height="13" fill="#E0E7EB"/><text x="246.7" y="203.3" dy="0.35em" text-anchor="middle" font-family="Poppins-Regular, Poppins" font-size="6.5" fill="#3B4348">20</text><text x="54.0" y="203.3" dy="0.35em" text-anchor="end" font-family="Poppins-Regular, Poppins" font-size="7" fill="#3B4348">FPT</text><rect x="60.00" y="213.44" width="143.31" height="13" fill="#007777"/><text x="131.7" y="219.9" dy="0.35em" text-anchor="middle" font-family="Poppins-Regular, Poppins" font-size="6.5" fill="#FFFFFF">69</text><rect x="203.31" y="213.44" width="24.13" height="13" fill="#C24146"/><text x="215.4" y="219.9" dy="0.35em" text-anchor="middle" font-family="Poppins-Regular, Poppins" font-size="6.5" fill="#FFFFFF">12</text><rect x="227.44" y="213.44" width="40.56" height="13" fill="#E0E7EB"/><text x="247.7" y="219.9" dy="0.35em" text-anchor="middle" font-family="Poppins-Regular, Poppins" font-size="6.5" fill="#3B4348">20</text><text x="54.0" y="219.9" dy="0.35em" text-anchor="end" font-family="Poppins-Regular, Poppins" font-size="7" fill="#3B4348">FPH</text><line x1="60" x2="268" y1="232.07999999999998" y2="232.07999999999998" stroke="#3B4348" stroke-width="0.6"/><line x1="60" x2="60" y1="232.07999999999998" y2="234.57999999999998" stroke="#3B4348" stroke-width="0.6"/><text x="60.0" y="240.1" dy="0.35em" text-anchor="middle" font-family="Poppins-Regular, Poppins" font-size="7" fill="#3B4348">0</text><line x1="112" x2="112" y1="232.07999999999998" y2="234.57999999999998" stroke="#3B4348" stroke-width="0.6"/><text x="112.0" y="240.1" dy="0.35em" text-anchor="middle" font-family="Poppins-Regular, Poppins" font-size="7" fill="#3B4348">25</text><line x1="164" x2="164" y1="232.07999999999998" y2="234.57999999999998" stroke="#3B4348" stroke-width="0.6"/><text x="164.0" y="240.1" dy="0.35em" text-anchor="middle" font-family="Poppins-Regular, Poppins" font-size="7" fill="#3B4348">50</text><line x1="216" x2="216" y1="232.07999999999998" y2="234.57999999999998" stroke="#3B4348" stroke-width="0.6"/><text x="216.0" y="240.1" dy="0.35em" text-anchor="middle" font-family="Poppins-Regular, Poppins" font-size="7" fill="#3B4348">75</text><line x1="268" x2="268" y1="232.07999999999998" y2="234.57999999999998" stroke="#3B4348" stroke-width="0.6"/><text x="268.0" y="240.1" dy="0.35em" text-anchor="middle" font-family="Poppins-Regular, Poppins" font-size="7" fill="#3B4348">100</text><rect x="60.0" y="252.1" width="8" height="8" fill="#007777"/><text x="72.0" y="256.1" dy="0.35em" text-anchor="start" font-family="Poppins-Regular, Poppins" font-size="7" fill="#3B4348">Oui</text><rect x="95.7" y="252.1" width="8" height="8" fill="#C24146"/><text x="107.7" y="256.1" dy="0.35em" text-anchor="start" font-family="Poppins-Regular, Poppins" font-size="7" fill="#3B4348">Non</text><rect x="133.6" y="252.1" width="8" height="8" fill="#E0E7EB"/><text x="145.6" y="256.1" dy="0.35em" text-anchor="start" font-family="Poppins-Regular, Poppins" font-size="7" fill="#3B4348">Ne sait pas ou autre</text></g></svg>
