<?xml version="1.0" encoding="UTF-8"?>
<svg xmlns="http://www.w3.org/2000/svg" width="471pt" height="298pt" viewBox="0 0 471 298" data-axe-x="70.0" data-fin-x="401.0"><g transform="translate(0,-4.2)"><line x1="70" x2="70" y1="25.00" y2="87.08" stroke="#E6ECEF" stroke-width="0.4"/><line x1="70" x2="70" y1="99.08" y2="197.94" stroke="#E6ECEF" stroke-width="0.4"/><line x1="70" x2="70" y1="209.94" y2="265.36" stroke="#E6ECEF" stroke-width="0.4"/><line x1="152.75" x2="152.75" y1="25.00" y2="197.94" stroke="#E6ECEF" stroke-width="0.4"/><line x1="152.75" x2="152.75" y1="209.94" y2="265.36" stroke="#E6ECEF" stroke-width="0.4"/><line x1="235.5" x2="235.5" y1="25.00" y2="265.36" stroke="#E6ECEF" stroke-width="0.4"/><line x1="318.25" x2="318.25" y1="25.00" y2="265.36" stroke="#E6ECEF" stroke-width="0.4"/><line x1="401" x2="401" y1="25.00" y2="265.36" stroke="#E6ECEF" stroke-width="0.4"/><text x="70.0" y="15.5" dy="0.35em" text-anchor="start" font-family="Poppins-Bold, Poppins" font-weight="700" font-size="7" fill="#0B4862">Versant FP</text><rect x="70.00" y="25.00" width="23.88" height="13" fill="#C24146"/><text x="81.9" y="31.5" dy="0.35em" text-anchor="middle" font-family="Poppins-Regular, Poppins" font-size="6.5" fill="#FFFFFF">7</text><rect x="93.88" y="25.00" width="38.27" height="13" fill="#DF6263"/><text x="113.0" y="31.5" dy="0.35em" text-anchor="middle" font-family="Poppins-Regular, Poppins" font-size="6.5" fill="#FFFFFF">12</text><rect x="132.15" y="25.00" width="107.21" height="13" fill="#EBBF95"/><text x="185.8" y="31.5" dy="0.35em" text-anchor="middle" font-family="Poppins-Regular, Poppins" font-size="6.5" fill="#3B4348">32</text><rect x="239.36" y="25.00" width="155.25" height="13" fill="#007777"/><text x="317.0" y="31.5" dy="0.35em" text-anchor="middle" font-family="Poppins-Regular, Poppins" font-size="6.5" fill="#FFFFFF">47</text><rect x="394.61" y="25.00" width="6.39" height="13" fill="#E0E7EB"/><text x="64.0" y="31.5" dy="0.35em" text-anchor="end" font-family="Poppins-Regular, Poppins" font-size="7" fill="#3B4348">FPE</text><rect x="70.00" y="41.64" width="27.02" height="13" fill="#C24146"/><text x="83.5" y="48.1" dy="0.35em" text-anchor="middle" font-family="Poppins-Regular, Poppins" font-size="6.5" fill="#FFFFFF">8</text><rect x="97.02" y="41.64" width="37.17" height="13" fill="#DF6263"/><text x="115.6" y="48.1" dy="0.35em" text-anchor="middle" font-family="Poppins-Regular, Poppins" font-size="6.5" fill="#FFFFFF">11</text><rect x="134.19" y="41.64" width="110.73" height="13" fill="#EBBF95"/><text x="189.6" y="48.1" dy="0.35em" text-anchor="middle" font-family="Poppins-Regular, Poppins" font-size="6.5" fill="#3B4348">33</text><rect x="244.93" y="41.64" width="151.96" height="13" fill="#007777"/><text x="320.9" y="48.1" dy="0.35em" text-anchor="middle" font-family="Poppins-Regular, Poppins" font-size="6.5" fill="#FFFFFF">46</text><rect x="396.88" y="41.64" width="4.12" height="13" fill="#E0E7EB"/><text x="64.0" y="48.1" dy="0.35em" text-anchor="end" font-family="Poppins-Regular, Poppins" font-size="7" fill="#3B4348">FPT</text><rect x="70.00" y="58.28" width="12.29" height="13" fill="#C24146"/><rect x="82.29" y="58.28" width="20.82" height="13" fill="#DF6263"/><text x="92.7" y="64.8" dy="0.35em" text-anchor="middle" font-family="Poppins-Regular, Poppins" font-size="6.5" fill="#FFFFFF">6</text><rect x="103.10" y="58.28" width="108.42" height="13" fill="#EBBF95"/><text x="157.3" y="64.8" dy="0.35em" text-anchor="middle" font-family="Poppins-Regular, Poppins" font-size="6.5" fill="#3B4348">33</text><rect x="211.52" y="58.28" width="186.43" height="13" fill="#007777"/><text x="304.7" y="64.8" dy="0.35em" text-anchor="middle" font-family="Poppins-Regular, Poppins" font-size="6.5" fill="#FFFFFF">56</text><rect x="397.95" y="58.28" width="3.05" height="13" fill="#E0E7EB"/><text x="64.0" y="64.8" dy="0.35em" text-anchor="end" font-family="Poppins-Regular, Poppins" font-size="7" fill="#3B4348">FPH</text><text x="70.0" y="93.1" dy="0.35em" text-anchor="start" font-family="Poppins-Bold, Poppins" font-weight="700" font-size="7" fill="#0B4862">Catégorie</text><rect x="70.00" y="102.58" width="12.60" height="13" fill="#C24146"/><rect x="82.60" y="102.58" width="27.49" height="13" fill="#DF6263"/><text x="96.3" y="109.1" dy="0.35em" text-anchor="middle" font-family="Poppins-Regular, Poppins" font-size="6.5" fill="#FFFFFF">8</text><rect x="110.09" y="102.58" width="106.14" height="13" fill="#EBBF95"/><text x="163.2" y="109.1" dy="0.35em" text-anchor="middle" font-family="Poppins-Regular, Poppins" font-size="6.5" fill="#3B4348">32</text><rect x="216.23" y="102.58" width="180.19" height="13" fill="#007777"/><text x="306.3" y="109.1" dy="0.35em" text-anchor="middle" font-family="Poppins-Regular, Poppins" font-size="6.5" fill="#FFFFFF">54</text><rect x="396.42" y="102.58" width="4.59" height="13" fill="#E0E7EB"/><text x="64.0" y="109.1" dy="0.35em" text-anchor="end" font-family="Poppins-Regular, Poppins" font-size="7" fill="#3B4348">A+</text><rect x="70.00" y="119.22" width="36.17" height="13" fill="#DF6263"/><text x="88.1" y="125.7" dy="0.35em" text-anchor="middle" font-family="Poppins-Regular, Poppins" font-size="6.5" fill="#FFFFFF">11</text><rect x="106.17" y="119.22" width="122.90" height="13" fill="#EBBF95"/><text x="167.6" y="125.7" dy="0.35em" text-anchor="middle" font-family="Poppins-Regular, Poppins" font-size="6.5" fill="#3B4348">37</text><rect x="229.07" y="119.22" width="167.99" height="13" fill="#007777"/><text x="313.1" y="125.7" dy="0.35em" text-anchor="middle" font-family="Poppins-Regular, Poppins" font-size="6.5" fill="#FFFFFF">51</text><rect x="397.05" y="119.22" width="3.95" height="13" fill="#E0E7EB"/><text x="64.0" y="125.7" dy="0.35em" text-anchor="end" font-family="Poppins-Regular, Poppins" font-size="7" fill="#3B4348">A</text><rect x="70.00" y="135.86" width="26.25" height="13" fill="#C24146"/><text x="83.1" y="142.4" dy="0.35em" text-anchor="middle" font-family="Poppins-Regular, Poppins" font-size="6.5" fill="#FFFFFF">8</text><rect x="96.25" y="135.86" width="36.92" height="13" fill="#DF6263"/><text x="114.7" y="142.4" dy="0.35em" text-anchor="middle" font-family="Poppins-Regular, Poppins" font-size="6.5" fill="#FFFFFF">11</text><rect x="133.17" y="135.86" width="102.75" height="13" fill="#EBBF95"/><text x="184.5" y="142.4" dy="0.35em" text-anchor="middle" font-family="Poppins-Regular, Poppins" font-size="6.5" fill="#3B4348">31</text><rect x="235.92" y="135.86" width="159.25" height="13" fill="#007777"/><text x="315.5" y="142.4" dy="0.35em" text-anchor="middle" font-family="Poppins-Regular, Poppins" font-size="6.5" fill="#FFFFFF">48</text><rect x="395.17" y="135.86" width="5.83" height="13" fill="#E0E7EB"/><text x="64.0" y="142.4" dy="0.35em" text-anchor="end" font-family="Poppins-Regular, Poppins" font-size="7" fill="#3B4348">B</text><rect x="70.00" y="152.50" width="31.83" height="13" fill="#C24146"/><text x="85.9" y="159.0" dy="0.35em" text-anchor="middle" font-family="Poppins-Regular, Poppins" font-size="6.5" fill="#FFFFFF">10</text><rect x="101.83" y="152.50" width="37.24" height="13" fill="#DF6263"/><text x="120.5" y="159.0" dy="0.35em" text-anchor="middle" font-family="Poppins-Regular, Poppins" font-size="6.5" fill="#FFFFFF">11</text><rect x="139.07" y="152.50" width="103.62" height="13" fill="#EBBF95"/><text x="190.9" y="159.0" dy="0.35em" text-anchor="middle" font-family="Poppins-Regular, Poppins" font-size="6.5" fill="#3B4348">31</text><rect x="242.69" y="152.50" width="151.43" height="13" fill="#007777"/><text x="318.4" y="159.0" dy="0.35em" text-anchor="middle" font-family="Poppins-Regular, Poppins" font-size="6.5" fill="#FFFFFF">46</text><rect x="394.12" y="152.50" width="6.88" height="13" fill="#E0E7EB"/><text x="64.0" y="159.0" dy="0.35em" text-anchor="end" font-family="Poppins-Regular, Poppins" font-size="7" fill="#3B4348">C</text><rect x="70.00" y="169.14" width="19.47" height="13" fill="#C24146"/><text x="79.7" y="175.6" dy="0.35em" text-anchor="middle" font-family="Poppins-Regular, Poppins" font-size="6.5" fill="#FFFFFF">6</text><rect x="89.47" y="169.14" width="64.90" height="13" fill="#DF6263"/><text x="121.9" y="175.6" dy="0.35em" text-anchor="middle" font-family="Poppins-Regular, Poppins" font-size="6.5" fill="#FFFFFF">20</text><rect x="154.37" y="169.14" width="114.66" height="13" fill="#EBBF95"/><text x="211.7" y="175.6" dy="0.35em" text-anchor="middle" font-family="Poppins-Regular, Poppins" font-size="6.5" fill="#3B4348">35</text><rect x="269.03" y="169.14" width="116.83" height="13" fill="#007777"/><text x="327.4" y="175.6" dy="0.35em" text-anchor="middle" font-family="Poppins-Regular, Poppins" font-size="6.5" fill="#FFFFFF">35</text><rect x="385.85" y="169.14" width="15.15" height="13" fill="#E0E7EB"/><text x="393.4" y="175.6" dy="0.35em" text-anchor="middle" font-family="Poppins-Regular, Poppins" font-size="6.5" fill="#3B4348">5</text><text x="64.0" y="175.6" dy="0.35em" text-anchor="end" font-family="Poppins-Regular, Poppins" font-size="7" fill="#3B4348">Autre</text><text x="70.0" y="203.9" dy="0.35em" text-anchor="start" font-family="Poppins-Bold, Poppins" font-weight="700" font-size="7" fill="#0B4862">Fonctions d’encadrement</text><rect x="70.00" y="213.44" width="15.29" height="13" fill="#C24146"/><text x="77.6" y="219.9" dy="0.35em" text-anchor="middle" font-family="Poppins-Regular, Poppins" font-size="6.5" fill="#FFFFFF">5</text><rect x="85.29" y="213.44" width="26.21" height="13" fill="#DF6263"/><text x="98.4" y="219.9" dy="0.35em" text-anchor="middle" font-family="Poppins-Regular, Poppins" font-size="6.5" fill="#FFFFFF">8</text><rect x="111.50" y="213.44" width="97.87" height="13" fill="#EBBF95"/><text x="160.4" y="219.9" dy="0.35em" text-anchor="middle" font-family="Poppins-Regular, Poppins" font-size="6.5" fill="#3B4348">30</text><rect x="209.37" y="213.44" width="187.96" height="13" fill="#007777"/><text x="303.3" y="219.9" dy="0.35em" text-anchor="middle" font-family="Poppins-Regular, Poppins" font-size="6.5" fill="#FFFFFF">57</text><rect x="397.33" y="213.44" width="3.68" height="13" fill="#E0E7EB"/><text x="64.0" y="216.2" dy="0.35em" text-anchor="end" font-family="Poppins-Regular, Poppins" font-size="7" fill="#3B4348">Oui tâche</text><text x="64.0" y="223.6" dy="0.35em" text-anchor="end" font-family="Poppins-Regular, Poppins" font-size="7" fill="#3B4348">principale</text><rect x="70.00" y="230.08" width="36.38" height="13" fill="#DF6263"/><text x="88.2" y="236.6" dy="0.35em" text-anchor="middle" font-family="Poppins-Regular, Poppins" font-size="6.5" fill="#FFFFFF">11</text><rect x="106.38" y="230.08" width="110.65" height="13" fill="#EBBF95"/><text x="161.7" y="236.6" dy="0.35em" text-anchor="middle" font-family="Poppins-Regular, Poppins" font-size="6.5" fill="#3B4348">33</text><rect x="217.03" y="230.08" width="179.30" height="13" fill="#007777"/><text x="306.7" y="236.6" dy="0.35em" text-anchor="middle" font-family="Poppins-Regular, Poppins" font-size="6.5" fill="#FFFFFF">54</text><rect x="396.34" y="230.08" width="4.66" height="13" fill="#E0E7EB"/><text x="64.0" y="232.9" dy="0.35em" text-anchor="end" font-family="Poppins-Regular, Poppins" font-size="7" fill="#3B4348">Oui tâche</text><text x="64.0" y="240.3" dy="0.35em" text-anchor="end" font-family="Poppins-Regular, Poppins" font-size="7" fill="#3B4348">secondaire</text><rect x="70.00" y="246.72" width="26.49" height="13" fill="#C24146"/><text x="83.2" y="253.2" dy="0.35em" text-anchor="middle" font-family="Poppins-Regular, Poppins" font-size="6.5" fill="#FFFFFF">8</text><rect x="96.49" y="246.72" width="38.19" height="13" fill="#DF6263"/><text x="115.6" y="253.2" dy="0.35em" text-anchor="middle" font-family="Poppins-Regular, Poppins" font-size="6.5" fill="#FFFFFF">12</text><rect x="134.68" y="246.72" width="112.69" height="13" fill="#EBBF95"/><text x="191.0" y="253.2" dy="0.35em" text-anchor="middle" font-family="Poppins-Regular, Poppins" font-size="6.5" fill="#3B4348">34</text><rect x="247.37" y="246.72" width="148.43" height="13" fill="#007777"/><text x="321.6" y="253.2" dy="0.35em" text-anchor="middle" font-family="Poppins-Regular, Poppins" font-size="6.5" fill="#FFFFFF">45</text><rect x="395.80" y="246.72" width="5.20" height="13" fill="#E0E7EB"/><text x="64.0" y="253.2" dy="0.35em" text-anchor="end" font-family="Poppins-Regular, Poppins" font-size="7" fill="#3B4348">Non</text><line x1="70" x2="401" y1="265.35999999999996" y2="265.35999999999996" stroke="#3B4348" stroke-width="0.6"/><line x1="70" x2="70" y1="265.35999999999996" y2="267.85999999999996" stroke="#3B4348" stroke-width="0.6"/><text x="70.0" y="273.4" dy="0.35em" text-anchor="middle" font-family="Poppins-Regular, Poppins" font-size="7" fill="#3B4348">0</text><line x1="152.75" x2="152.75" y1="265.35999999999996" y2="267.85999999999996" stroke="#3B4348" stroke-width="0.6"/><text x="152.8" y="273.4" dy="0.35em" text-anchor="middle" font-family="Poppins-Regular, Poppins" font-size="7" fill="#3B4348">25</text><line x1="235.5" x2="235.5" y1="265.35999999999996" y2="267.85999999999996" stroke="#3B4348" stroke-width="0.6"/><text x="235.5" y="273.4" dy="0.35em" text-anchor="middle" font-family="Poppins-Regular, Poppins" font-size="7" fill="#3B4348">50</text><line x1="318.25" x2="318.25" y1="265.35999999999996" y2="267.85999999999996" stroke="#3B4348" stroke-width="0.6"/><text x="318.3" y="273.4" dy="0.35em" text-anchor="middle" font-family="Poppins-Regular, Poppins" font-size="7" fill="#3B4348">75</text><line x1="401" x2="401" y1="265.35999999999996" y2="267.85999999999996" stroke="#3B4348" stroke-width="0.6"/><text x="401.0" y="273.4" dy="0.35em" text-anchor="middle" font-family="Poppins-Regular, Poppins" font-size="7" fill="#3B4348">100</text><rect x="70.0" y="285.4" width="8" height="8" fill="#C24146"/><text x="82.0" y="289.4" dy="0.35em" text-anchor="start" font-family="Poppins-Regular, Poppins" font-size="7" fill="#3B4348">Très fréquemment</text><rect x="158.9" y="285.4" width="8" height="8" fill="#DF6263"/><text x="170.9" y="289.4" dy="0.35em" text-anchor="start" font-family="Poppins-Regular, Poppins" font-size="7" fill="#3B4348">Souvent</text><rect x="211.2" y="285.4" width="8" height="8" fill="#EBBF95"/><text x="223.2" y="289.4" dy="0.35em" text-anchor="start" font-family="Poppins-Regular, Poppins" font-size="7" fill="#3B4348">Parfois</text><rect x="258.8" y="285.4" width="8" height="8" fill="#007777"/><text x="270.8" y="289.4" dy="0.35em" text-anchor="start" font-family="Poppins-Regular, Poppins" font-size="7" fill="#3B4348">Jamais</text><rect x="308.5" y="285.4" width="8" height="8" fill="#E0E7EB"/><text x="320.5" y="289.4" dy="0.35em" text-anchor="start" font-family="Poppins-Regular, Poppins" font-size="7" fill="#3B4348">Ne sait pas ou autre</text></g></svg>
