<?xml version="1.0" encoding="UTF-8"?>
<svg xmlns="http://www.w3.org/2000/svg" width="366pt" height="366pt" viewBox="0 0 366 366" data-axe-x="70.0" data-fin-x="296.0"><line x1="70" x2="70" y1="24.00" y2="328.56" stroke="#E6ECEF" stroke-width="0.4"/><line x1="126.5" x2="126.5" y1="24.00" y2="328.56" stroke="#E6ECEF" stroke-width="0.4"/><line x1="183" x2="183" y1="24.00" y2="328.56" stroke="#E6ECEF" stroke-width="0.4"/><line x1="239.5" x2="239.5" y1="24.00" y2="328.56" stroke="#E6ECEF" stroke-width="0.4"/><line x1="296" x2="296" y1="24.00" y2="328.56" stroke="#E6ECEF" stroke-width="0.4"/><text x="70.0" y="15.0" dy="0.35em" text-anchor="start" font-family="Poppins-Bold, Poppins" font-weight="700" font-size="7" fill="#0B4862">Tranche d’âge</text><rect x="70.00" y="24.00" width="46.88" height="12" fill="#007777"/><text x="93.4" y="30.0" dy="0.35em" text-anchor="middle" font-family="Poppins-Regular, Poppins" font-size="6.5" fill="#FFFFFF">21</text><rect x="116.88" y="24.00" width="116.16" height="12" fill="#32C2C2"/><text x="175.0" y="30.0" dy="0.35em" text-anchor="middle" font-family="Poppins-Regular, Poppins" font-size="6.5" fill="#3B4348">51</text><rect x="233.04" y="24.00" width="36.13" height="12" fill="#EBBF95"/><text x="251.1" y="30.0" dy="0.35em" text-anchor="middle" font-family="Poppins-Regular, Poppins" font-size="6.5" fill="#3B4348">16</text><rect x="269.18" y="24.00" width="8.98" height="12" fill="#C24146"/><rect x="278.16" y="24.00" width="17.84" height="12" fill="#E0E7EB"/><text x="287.1" y="30.0" dy="0.35em" text-anchor="middle" font-family="Poppins-Regular, Poppins" font-size="6.5" fill="#3B4348">8</text><text x="64.0" y="30.0" dy="0.35em" text-anchor="end" font-family="Poppins-Regular, Poppins" font-size="7" fill="#3B4348">&lt;35</text><rect x="70.00" y="39.36" width="39.74" height="12" fill="#007777"/><text x="89.9" y="45.4" dy="0.35em" text-anchor="middle" font-family="Poppins-Regular, Poppins" font-size="6.5" fill="#FFFFFF">18</text><rect x="109.74" y="39.36" width="115.22" height="12" fill="#32C2C2"/><text x="167.4" y="45.4" dy="0.35em" text-anchor="middle" font-family="Poppins-Regular, Poppins" font-size="6.5" fill="#3B4348">51</text><rect x="224.96" y="39.36" width="39.96" height="12" fill="#EBBF95"/><text x="244.9" y="45.4" dy="0.35em" text-anchor="middle" font-family="Poppins-Regular, Poppins" font-size="6.5" fill="#3B4348">18</text><rect x="264.92" y="39.36" width="10.70" height="12" fill="#C24146"/><text x="270.3" y="45.4" dy="0.35em" text-anchor="middle" font-family="Poppins-Regular, Poppins" font-size="6.5" fill="#FFFFFF">5</text><rect x="275.62" y="39.36" width="20.38" height="12" fill="#E0E7EB"/><text x="285.8" y="45.4" dy="0.35em" text-anchor="middle" font-family="Poppins-Regular, Poppins" font-size="6.5" fill="#3B4348">9</text><text x="64.0" y="45.4" dy="0.35em" text-anchor="end" font-family="Poppins-Regular, Poppins" font-size="7" fill="#3B4348">35-44</text><rect x="70.00" y="54.72" width="33.61" height="12" fill="#007777"/><text x="86.8" y="60.7" dy="0.35em" text-anchor="middle" font-family="Poppins-Regular, Poppins" font-size="6.5" fill="#FFFFFF">15</text><rect x="103.61" y="54.72" width="113.97" height="12" fill="#32C2C2"/><text x="160.6" y="60.7" dy="0.35em" text-anchor="middle" font-family="Poppins-Regular, Poppins" font-size="6.5" fill="#3B4348">50</text><rect x="217.58" y="54.72" width="42.63" height="12" fill="#EBBF95"/><text x="238.9" y="60.7" dy="0.35em" text-anchor="middle" font-family="Poppins-Regular, Poppins" font-size="6.5" fill="#3B4348">19</text><rect x="260.21" y="54.72" width="13.48" height="12" fill="#C24146"/><text x="267.0" y="60.7" dy="0.35em" text-anchor="middle" font-family="Poppins-Regular, Poppins" font-size="6.5" fill="#FFFFFF">6</text><rect x="273.69" y="54.72" width="22.31" height="12" fill="#E0E7EB"/><text x="284.8" y="60.7" dy="0.35em" text-anchor="middle" font-family="Poppins-Regular, Poppins" font-size="6.5" fill="#3B4348">10</text><text x="64.0" y="60.7" dy="0.35em" text-anchor="end" font-family="Poppins-Regular, Poppins" font-size="7" fill="#3B4348">45-54</text><rect x="70.00" y="70.08" width="32.69" height="12" fill="#007777"/><text x="86.3" y="76.1" dy="0.35em" text-anchor="middle" font-family="Poppins-Regular, Poppins" font-size="6.5" fill="#FFFFFF">14</text><rect x="102.69" y="70.08" width="101.58" height="12" fill="#32C2C2"/><text x="153.5" y="76.1" dy="0.35em" text-anchor="middle" font-family="Poppins-Regular, Poppins" font-size="6.5" fill="#3B4348">45</text><rect x="204.27" y="70.08" width="51.91" height="12" fill="#EBBF95"/><text x="230.2" y="76.1" dy="0.35em" text-anchor="middle" font-family="Poppins-Regular, Poppins" font-size="6.5" fill="#3B4348">23</text><rect x="256.19" y="70.08" width="14.74" height="12" fill="#C24146"/><text x="263.6" y="76.1" dy="0.35em" text-anchor="middle" font-family="Poppins-Regular, Poppins" font-size="6.5" fill="#FFFFFF">7</text><rect x="270.92" y="70.08" width="25.08" height="12" fill="#E0E7EB"/><text x="283.5" y="76.1" dy="0.35em" text-anchor="middle" font-family="Poppins-Regular, Poppins" font-size="6.5" fill="#3B4348">11</text><text x="64.0" y="76.1" dy="0.35em" text-anchor="end" font-family="Poppins-Regular, Poppins" font-size="7" fill="#3B4348">55+</text><text x="70.0" y="102.3" dy="0.35em" text-anchor="start" font-family="Poppins-Bold, Poppins" font-weight="700" font-size="7" fill="#0B4862">Versant FP</text><rect x="70.00" y="111.28" width="37.14" height="12" fill="#007777"/><text x="88.6" y="117.3" dy="0.35em" text-anchor="middle" font-family="Poppins-Regular, Poppins" font-size="6.5" fill="#FFFFFF">16</text><rect x="107.14" y="111.28" width="112.21" height="12" fill="#32C2C2"/><text x="163.2" y="117.3" dy="0.35em" text-anchor="middle" font-family="Poppins-Regular, Poppins" font-size="6.5" fill="#3B4348">50</text><rect x="219.35" y="111.28" width="40.49" height="12" fill="#EBBF95"/><text x="239.6" y="117.3" dy="0.35em" text-anchor="middle" font-family="Poppins-Regular, Poppins" font-size="6.5" fill="#3B4348">18</text><rect x="259.84" y="111.28" width="11.92" height="12" fill="#C24146"/><text x="265.8" y="117.3" dy="0.35em" text-anchor="middle" font-family="Poppins-Regular, Poppins" font-size="6.5" fill="#FFFFFF">5</text><rect x="271.76" y="111.28" width="24.24" height="12" fill="#E0E7EB"/><text x="283.9" y="117.3" dy="0.35em" text-anchor="middle" font-family="Poppins-Regular, Poppins" font-size="6.5" fill="#3B4348">11</text><text x="64.0" y="117.3" dy="0.35em" text-anchor="end" font-family="Poppins-Regular, Poppins" font-size="7" fill="#3B4348">FPE</text><rect x="70.00" y="126.64" width="38.00" height="12" fill="#007777"/><text x="89.0" y="132.6" dy="0.35em" text-anchor="middle" font-family="Poppins-Regular, Poppins" font-size="6.5" fill="#FFFFFF">17</text><rect x="108.00" y="126.64" width="112.37" height="12" fill="#32C2C2"/><text x="164.2" y="132.6" dy="0.35em" text-anchor="middle" font-family="Poppins-Regular, Poppins" font-size="6.5" fill="#3B4348">50</text><rect x="220.37" y="126.64" width="45.06" height="12" fill="#EBBF95"/><text x="242.9" y="132.6" dy="0.35em" text-anchor="middle" font-family="Poppins-Regular, Poppins" font-size="6.5" fill="#3B4348">20</text><rect x="265.43" y="126.64" width="13.70" height="12" fill="#C24146"/><text x="272.3" y="132.6" dy="0.35em" text-anchor="middle" font-family="Poppins-Regular, Poppins" font-size="6.5" fill="#FFFFFF">6</text><rect x="279.14" y="126.64" width="16.86" height="12" fill="#E0E7EB"/><text x="287.6" y="132.6" dy="0.35em" text-anchor="middle" font-family="Poppins-Regular, Poppins" font-size="6.5" fill="#3B4348">7</text><text x="64.0" y="132.6" dy="0.35em" text-anchor="end" font-family="Poppins-Regular, Poppins" font-size="7" fill="#3B4348">FPT</text><rect x="70.00" y="142.00" width="39.13" height="12" fill="#007777"/><text x="89.6" y="148.0" dy="0.35em" text-anchor="middle" font-family="Poppins-Regular, Poppins" font-size="6.5" fill="#FFFFFF">17</text><rect x="109.13" y="142.00" width="120.65" height="12" fill="#32C2C2"/><text x="169.5" y="148.0" dy="0.35em" text-anchor="middle" font-family="Poppins-Regular, Poppins" font-size="6.5" fill="#3B4348">53</text><rect x="229.78" y="142.00" width="37.65" height="12" fill="#EBBF95"/><text x="248.6" y="148.0" dy="0.35em" text-anchor="middle" font-family="Poppins-Regular, Poppins" font-size="6.5" fill="#3B4348">17</text><rect x="267.43" y="142.00" width="8.00" height="12" fill="#C24146"/><rect x="275.43" y="142.00" width="20.57" height="12" fill="#E0E7EB"/><text x="285.7" y="148.0" dy="0.35em" text-anchor="middle" font-family="Poppins-Regular, Poppins" font-size="6.5" fill="#3B4348">9</text><text x="64.0" y="148.0" dy="0.35em" text-anchor="end" font-family="Poppins-Regular, Poppins" font-size="7" fill="#3B4348">FPH</text><text x="70.0" y="174.2" dy="0.35em" text-anchor="start" font-family="Poppins-Bold, Poppins" font-weight="700" font-size="7" fill="#0B4862">Fonctions d’encadrement</text><rect x="70.00" y="183.20" width="40.37" height="12" fill="#007777"/><text x="90.2" y="189.2" dy="0.35em" text-anchor="middle" font-family="Poppins-Regular, Poppins" font-size="6.5" fill="#FFFFFF">18</text><rect x="110.37" y="183.20" width="122.73" height="12" fill="#32C2C2"/><text x="171.7" y="189.2" dy="0.35em" text-anchor="middle" font-family="Poppins-Regular, Poppins" font-size="6.5" fill="#3B4348">54</text><rect x="233.10" y="183.20" width="41.36" height="12" fill="#EBBF95"/><text x="253.8" y="189.2" dy="0.35em" text-anchor="middle" font-family="Poppins-Regular, Poppins" font-size="6.5" fill="#3B4348">18</text><rect x="274.46" y="183.20" width="7.21" height="12" fill="#C24146"/><rect x="281.67" y="183.20" width="14.33" height="12" fill="#E0E7EB"/><text x="288.8" y="189.2" dy="0.35em" text-anchor="middle" font-family="Poppins-Regular, Poppins" font-size="6.5" fill="#3B4348">6</text><text x="64.0" y="185.5" dy="0.35em" text-anchor="end" font-family="Poppins-Regular, Poppins" font-size="7" fill="#3B4348">Oui tâche</text><text x="64.0" y="192.9" dy="0.35em" text-anchor="end" font-family="Poppins-Regular, Poppins" font-size="7" fill="#3B4348">principale</text><rect x="70.00" y="198.56" width="33.97" height="12" fill="#007777"/><text x="87.0" y="204.6" dy="0.35em" text-anchor="middle" font-family="Poppins-Regular, Poppins" font-size="6.5" fill="#FFFFFF">15</text><rect x="103.97" y="198.56" width="113.55" height="12" fill="#32C2C2"/><text x="160.7" y="204.6" dy="0.35em" text-anchor="middle" font-family="Poppins-Regular, Poppins" font-size="6.5" fill="#3B4348">50</text><rect x="217.52" y="198.56" width="49.65" height="12" fill="#EBBF95"/><text x="242.3" y="204.6" dy="0.35em" text-anchor="middle" font-family="Poppins-Regular, Poppins" font-size="6.5" fill="#3B4348">22</text><rect x="267.16" y="198.56" width="12.89" height="12" fill="#C24146"/><text x="273.6" y="204.6" dy="0.35em" text-anchor="middle" font-family="Poppins-Regular, Poppins" font-size="6.5" fill="#FFFFFF">6</text><rect x="280.05" y="198.56" width="15.95" height="12" fill="#E0E7EB"/><text x="288.0" y="204.6" dy="0.35em" text-anchor="middle" font-family="Poppins-Regular, Poppins" font-size="6.5" fill="#3B4348">7</text><text x="64.0" y="200.9" dy="0.35em" text-anchor="end" font-family="Poppins-Regular, Poppins" font-size="7" fill="#3B4348">Oui tâche</text><text x="64.0" y="208.3" dy="0.35em" text-anchor="end" font-family="Poppins-Regular, Poppins" font-size="7" fill="#3B4348">secondaire</text><rect x="70.00" y="213.92" width="39.47" height="12" fill="#007777"/><text x="89.7" y="219.9" dy="0.35em" text-anchor="middle" font-family="Poppins-Regular, Poppins" font-size="6.5" fill="#FFFFFF">17</text><rect x="109.47" y="213.92" width="108.62" height="12" fill="#32C2C2"/><text x="163.8" y="219.9" dy="0.35em" text-anchor="middle" font-family="Poppins-Regular, Poppins" font-size="6.5" fill="#3B4348">48</text><rect x="218.08" y="213.92" width="41.44" height="12" fill="#EBBF95"/><text x="238.8" y="219.9" dy="0.35em" text-anchor="middle" font-family="Poppins-Regular, Poppins" font-size="6.5" fill="#3B4348">18</text><rect x="259.53" y="213.92" width="12.70" height="12" fill="#C24146"/><text x="265.9" y="219.9" dy="0.35em" text-anchor="middle" font-family="Poppins-Regular, Poppins" font-size="6.5" fill="#FFFFFF">6</text><rect x="272.23" y="213.92" width="23.77" height="12" fill="#E0E7EB"/><text x="284.1" y="219.9" dy="0.35em" text-anchor="middle" font-family="Poppins-Regular, Poppins" font-size="6.5" fill="#3B4348">11</text><text x="64.0" y="219.9" dy="0.35em" text-anchor="end" font-family="Poppins-Regular, Poppins" font-size="7" fill="#3B4348">Non</text><text x="70.0" y="246.1" dy="0.35em" text-anchor="start" font-family="Poppins-Bold, Poppins" font-weight="700" font-size="7" fill="#0B4862">Catégorie</text><rect x="70.00" y="255.12" width="52.12" height="12" fill="#007777"/><text x="96.1" y="261.1" dy="0.35em" text-anchor="middle" font-family="Poppins-Regular, Poppins" font-size="6.5" fill="#FFFFFF">23</text><rect x="122.12" y="255.12" width="126.85" height="12" fill="#32C2C2"/><text x="185.5" y="261.1" dy="0.35em" text-anchor="middle" font-family="Poppins-Regular, Poppins" font-size="6.5" fill="#3B4348">56</text><rect x="248.97" y="255.12" width="29.74" height="12" fill="#EBBF95"/><text x="263.8" y="261.1" dy="0.35em" text-anchor="middle" font-family="Poppins-Regular, Poppins" font-size="6.5" fill="#3B4348">13</text><rect x="278.71" y="255.12" width="4.32" height="12" fill="#C24146"/><rect x="283.03" y="255.12" width="12.97" height="12" fill="#E0E7EB"/><text x="289.5" y="261.1" dy="0.35em" text-anchor="middle" font-family="Poppins-Regular, Poppins" font-size="6.5" fill="#3B4348">6</text><text x="64.0" y="261.1" dy="0.35em" text-anchor="end" font-family="Poppins-Regular, Poppins" font-size="7" fill="#3B4348">A+</text><rect x="70.00" y="270.48" width="41.25" height="12" fill="#007777"/><text x="90.6" y="276.5" dy="0.35em" text-anchor="middle" font-family="Poppins-Regular, Poppins" font-size="6.5" fill="#FFFFFF">18</text><rect x="111.25" y="270.48" width="125.40" height="12" fill="#32C2C2"/><text x="173.9" y="276.5" dy="0.35em" text-anchor="middle" font-family="Poppins-Regular, Poppins" font-size="6.5" fill="#3B4348">55</text><rect x="236.65" y="270.48" width="36.33" height="12" fill="#EBBF95"/><text x="254.8" y="276.5" dy="0.35em" text-anchor="middle" font-family="Poppins-Regular, Poppins" font-size="6.5" fill="#3B4348">16</text><rect x="272.98" y="270.48" width="5.23" height="12" fill="#C24146"/><rect x="278.21" y="270.48" width="17.79" height="12" fill="#E0E7EB"/><text x="287.1" y="276.5" dy="0.35em" text-anchor="middle" font-family="Poppins-Regular, Poppins" font-size="6.5" fill="#3B4348">8</text><text x="64.0" y="276.5" dy="0.35em" text-anchor="end" font-family="Poppins-Regular, Poppins" font-size="7" fill="#3B4348">A</text><rect x="70.00" y="285.84" width="34.44" height="12" fill="#007777"/><text x="87.2" y="291.8" dy="0.35em" text-anchor="middle" font-family="Poppins-Regular, Poppins" font-size="6.5" fill="#FFFFFF">15</text><rect x="104.44" y="285.84" width="109.39" height="12" fill="#32C2C2"/><text x="159.1" y="291.8" dy="0.35em" text-anchor="middle" font-family="Poppins-Regular, Poppins" font-size="6.5" fill="#3B4348">48</text><rect x="213.82" y="285.84" width="45.60" height="12" fill="#EBBF95"/><text x="236.6" y="291.8" dy="0.35em" text-anchor="middle" font-family="Poppins-Regular, Poppins" font-size="6.5" fill="#3B4348">20</text><rect x="259.43" y="285.84" width="13.47" height="12" fill="#C24146"/><text x="266.2" y="291.8" dy="0.35em" text-anchor="middle" font-family="Poppins-Regular, Poppins" font-size="6.5" fill="#FFFFFF">6</text><rect x="272.89" y="285.84" width="23.10" height="12" fill="#E0E7EB"/><text x="284.4" y="291.8" dy="0.35em" text-anchor="middle" font-family="Poppins-Regular, Poppins" font-size="6.5" fill="#3B4348">10</text><text x="64.0" y="291.8" dy="0.35em" text-anchor="end" font-family="Poppins-Regular, Poppins" font-size="7" fill="#3B4348">B</text><rect x="70.00" y="301.20" width="30.48" height="12" fill="#007777"/><text x="85.2" y="307.2" dy="0.35em" text-anchor="middle" font-family="Poppins-Regular, Poppins" font-size="6.5" fill="#FFFFFF">13</text><rect x="100.48" y="301.20" width="96.51" height="12" fill="#32C2C2"/><text x="148.7" y="307.2" dy="0.35em" text-anchor="middle" font-family="Poppins-Regular, Poppins" font-size="6.5" fill="#3B4348">43</text><rect x="196.99" y="301.20" width="50.95" height="12" fill="#EBBF95"/><text x="222.5" y="307.2" dy="0.35em" text-anchor="middle" font-family="Poppins-Regular, Poppins" font-size="6.5" fill="#3B4348">23</text><rect x="247.94" y="301.20" width="22.74" height="12" fill="#C24146"/><text x="259.3" y="307.2" dy="0.35em" text-anchor="middle" font-family="Poppins-Regular, Poppins" font-size="6.5" fill="#FFFFFF">10</text><rect x="270.68" y="301.20" width="25.32" height="12" fill="#E0E7EB"/><text x="283.3" y="307.2" dy="0.35em" text-anchor="middle" font-family="Poppins-Regular, Poppins" font-size="6.5" fill="#3B4348">11</text><text x="64.0" y="307.2" dy="0.35em" text-anchor="end" font-family="Poppins-Regular, Poppins" font-size="7" fill="#3B4348">C</text><rect x="70.00" y="316.56" width="31.69" height="12" fill="#007777"/><text x="85.8" y="322.6" dy="0.35em" text-anchor="middle" font-family="Poppins-Regular, Poppins" font-size="6.5" fill="#FFFFFF">14</text><rect x="101.69" y="316.56" width="122.65" height="12" fill="#32C2C2"/><text x="163.0" y="322.6" dy="0.35em" text-anchor="middle" font-family="Poppins-Regular, Poppins" font-size="6.5" fill="#3B4348">54</text><rect x="224.34" y="316.56" width="44.10" height="12" fill="#EBBF95"/><text x="246.4" y="322.6" dy="0.35em" text-anchor="middle" font-family="Poppins-Regular, Poppins" font-size="6.5" fill="#3B4348">20</text><rect x="268.44" y="316.56" width="5.51" height="12" fill="#C24146"/><rect x="273.95" y="316.56" width="22.05" height="12" fill="#E0E7EB"/><text x="285.0" y="322.6" dy="0.35em" text-anchor="middle" font-family="Poppins-Regular, Poppins" font-size="6.5" fill="#3B4348">10</text><text x="64.0" y="322.6" dy="0.35em" text-anchor="end" font-family="Poppins-Regular, Poppins" font-size="7" fill="#3B4348">Autre</text><line x1="70" x2="296" y1="333.9200000000001" y2="333.9200000000001" stroke="#3B4348" stroke-width="0.6"/><line x1="70" x2="70" y1="333.9200000000001" y2="336.4200000000001" stroke="#3B4348" stroke-width="0.6"/><text x="70.0" y="341.9" dy="0.35em" text-anchor="middle" font-family="Poppins-Regular, Poppins" font-size="7" fill="#3B4348">0</text><line x1="126.5" x2="126.5" y1="333.9200000000001" y2="336.4200000000001" stroke="#3B4348" stroke-width="0.6"/><text x="126.5" y="341.9" dy="0.35em" text-anchor="middle" font-family="Poppins-Regular, Poppins" font-size="7" fill="#3B4348">25</text><line x1="183" x2="183" y1="333.9200000000001" y2="336.4200000000001" stroke="#3B4348" stroke-width="0.6"/><text x="183.0" y="341.9" dy="0.35em" text-anchor="middle" font-family="Poppins-Regular, Poppins" font-size="7" fill="#3B4348">50</text><line x1="239.5" x2="239.5" y1="333.9200000000001" y2="336.4200000000001" stroke="#3B4348" stroke-width="0.6"/><text x="239.5" y="341.9" dy="0.35em" text-anchor="middle" font-family="Poppins-Regular, Poppins" font-size="7" fill="#3B4348">75</text><line x1="296" x2="296" y1="333.9200000000001" y2="336.4200000000001" stroke="#3B4348" stroke-width="0.6"/><text x="296.0" y="341.9" dy="0.35em" text-anchor="middle" font-family="Poppins-Regular, Poppins" font-size="7" fill="#3B4348">100</text><rect x="70.0" y="353.9" width="8" height="8" fill="#007777"/><text x="82.0" y="357.9" dy="0.35em" text-anchor="start" font-family="Poppins-Regular, Poppins" font-size="7" fill="#3B4348">Oui</text><rect x="105.7" y="353.9" width="8" height="8" fill="#32C2C2"/><text x="117.7" y="357.9" dy="0.35em" text-anchor="start" font-family="Poppins-Regular, Poppins" font-size="7" fill="#3B4348">Plutôt oui</text><rect x="162.1" y="353.9" width="8" height="8" fill="#EBBF95"/><text x="174.1" y="357.9" dy="0.35em" text-anchor="start" font-family="Poppins-Regular, Poppins" font-size="7" fill="#3B4348">Plutôt non</text><rect x="221.2" y="353.9" width="8" height="8" fill="#C24146"/><text x="233.2" y="357.9" dy="0.35em" text-anchor="start" font-family="Poppins-Regular, Poppins" font-size="7" fill="#3B4348">Non</text><rect x="259.1" y="353.9" width="8" height="8" fill="#E0E7EB"/><text x="271.1" y="357.9" dy="0.35em" text-anchor="start" font-family="Poppins-Regular, Poppins" font-size="7" fill="#3B4348">Ne sait pas ou autre</text></svg>
