<?xml version="1.0" encoding="UTF-8"?>
<svg xmlns="http://www.w3.org/2000/svg" width="471pt" height="122pt" viewBox="0 0 471 122" data-axe-x="43.0" data-fin-x="428.0"><line x1="43" x2="43" y1="25.00" y2="71.28" stroke="#E6ECEF" stroke-width="0.4"/><line x1="139.25" x2="139.25" y1="25.00" y2="71.28" stroke="#E6ECEF" stroke-width="0.4"/><line x1="235.5" x2="235.5" y1="25.00" y2="71.28" stroke="#E6ECEF" stroke-width="0.4"/><line x1="331.75" x2="331.75" y1="25.00" y2="71.28" stroke="#E6ECEF" stroke-width="0.4"/><line x1="428" x2="428" y1="25.00" y2="71.28" stroke="#E6ECEF" stroke-width="0.4"/><text x="43.0" y="15.5" dy="0.35em" text-anchor="start" font-family="Poppins-Bold, Poppins" font-weight="700" font-size="7" fill="#0B4862">Versant FP</text><rect x="43.00" y="25.00" width="162.59" height="13" fill="#007777"/><text x="124.3" y="31.5" dy="0.35em" text-anchor="middle" font-family="Poppins-Regular, Poppins" font-size="6.5" fill="#FFFFFF">42</text><rect x="205.59" y="25.00" width="154.59" height="13" fill="#32C2C2"/><text x="282.9" y="31.5" dy="0.35em" text-anchor="middle" font-family="Poppins-Regular, Poppins" font-size="6.5" fill="#3B4348">40</text><rect x="360.18" y="25.00" width="18.95" height="13" fill="#EBBF95"/><text x="369.7" y="31.5" dy="0.35em" text-anchor="middle" font-family="Poppins-Regular, Poppins" font-size="6.5" fill="#3B4348">5</text><rect x="379.14" y="25.00" width="2.61" height="13" fill="#C24146"/><rect x="381.75" y="25.00" width="46.25" height="13" fill="#E0E7EB"/><text x="404.9" y="31.5" dy="0.35em" text-anchor="middle" font-family="Poppins-Regular, Poppins" font-size="6.5" fill="#3B4348">12</text><text x="37.0" y="31.5" dy="0.35em" text-anchor="end" font-family="Poppins-Regular, Poppins" font-size="7" fill="#3B4348">FPE</text><rect x="43.00" y="41.64" width="199.17" height="13" fill="#007777"/><text x="142.6" y="48.1" dy="0.35em" text-anchor="middle" font-family="Poppins-Regular, Poppins" font-size="6.5" fill="#FFFFFF">52</text><rect x="242.17" y="41.64" width="143.14" height="13" fill="#32C2C2"/><text x="313.7" y="48.1" dy="0.35em" text-anchor="middle" font-family="Poppins-Regular, Poppins" font-size="6.5" fill="#3B4348">37</text><rect x="385.31" y="41.64" width="11.63" height="13" fill="#EBBF95"/><rect x="396.93" y="41.64" width="1.34" height="13" fill="#C24146"/><rect x="398.27" y="41.64" width="29.73" height="13" fill="#E0E7EB"/><text x="413.1" y="48.1" dy="0.35em" text-anchor="middle" font-family="Poppins-Regular, Poppins" font-size="6.5" fill="#3B4348">8</text><text x="37.0" y="48.1" dy="0.35em" text-anchor="end" font-family="Poppins-Regular, Poppins" font-size="7" fill="#3B4348">FPT</text><rect x="43.00" y="58.28" width="169.14" height="13" fill="#007777"/><text x="127.6" y="64.8" dy="0.35em" text-anchor="middle" font-family="Poppins-Regular, Poppins" font-size="6.5" fill="#FFFFFF">44</text><rect x="212.14" y="58.28" width="168.80" height="13" fill="#32C2C2"/><text x="296.5" y="64.8" dy="0.35em" text-anchor="middle" font-family="Poppins-Regular, Poppins" font-size="6.5" fill="#3B4348">44</text><rect x="380.94" y="58.28" width="20.80" height="13" fill="#EBBF95"/><text x="391.3" y="64.8" dy="0.35em" text-anchor="middle" font-family="Poppins-Regular, Poppins" font-size="6.5" fill="#3B4348">5</text><rect x="401.74" y="58.28" width="2.73" height="13" fill="#C24146"/><rect x="404.47" y="58.28" width="23.53" height="13" fill="#E0E7EB"/><text x="416.2" y="64.8" dy="0.35em" text-anchor="middle" font-family="Poppins-Regular, Poppins" font-size="6.5" fill="#3B4348">6</text><text x="37.0" y="64.8" dy="0.35em" text-anchor="end" font-family="Poppins-Regular, Poppins" font-size="7" fill="#3B4348">FPH</text><line x1="43" x2="428" y1="76.92" y2="76.92" stroke="#3B4348" stroke-width="0.6"/><line x1="43" x2="43" y1="76.92" y2="79.42" stroke="#3B4348" stroke-width="0.6"/><text x="43.0" y="84.9" dy="0.35em" text-anchor="middle" font-family="Poppins-Regular, Poppins" font-size="7" fill="#3B4348">0</text><line x1="139.25" x2="139.25" y1="76.92" y2="79.42" stroke="#3B4348" stroke-width="0.6"/><text x="139.3" y="84.9" dy="0.35em" text-anchor="middle" font-family="Poppins-Regular, Poppins" font-size="7" fill="#3B4348">25</text><line x1="235.5" x2="235.5" y1="76.92" y2="79.42" stroke="#3B4348" stroke-width="0.6"/><text x="235.5" y="84.9" dy="0.35em" text-anchor="middle" font-family="Poppins-Regular, Poppins" font-size="7" fill="#3B4348">50</text><line x1="331.75" x2="331.75" y1="76.92" y2="79.42" stroke="#3B4348" stroke-width="0.6"/><text x="331.8" y="84.9" dy="0.35em" text-anchor="middle" font-family="Poppins-Regular, Poppins" font-size="7" fill="#3B4348">75</text><line x1="428" x2="428" y1="76.92" y2="79.42" stroke="#3B4348" stroke-width="0.6"/><text x="428.0" y="84.9" dy="0.35em" text-anchor="middle" font-family="Poppins-Regular, Poppins" font-size="7" fill="#3B4348">100</text><rect x="43.0" y="96.9" width="8" height="8" fill="#007777"/><text x="55.0" y="100.9" dy="0.35em" text-anchor="start" font-family="Poppins-Regular, Poppins" font-size="7" fill="#3B4348">Tout à fait d’accord</text><rect x="135.3" y="96.9" width="8" height="8" fill="#32C2C2"/><text x="147.3" y="100.9" dy="0.35em" text-anchor="start" font-family="Poppins-Regular, Poppins" font-size="7" fill="#3B4348">Plutôt d’accord</text><rect x="212.3" y="96.9" width="8" height="8" fill="#EBBF95"/><text x="224.3" y="100.9" dy="0.35em" text-anchor="start" font-family="Poppins-Regular, Poppins" font-size="7" fill="#3B4348">Plutôt pas d’accord</text><rect x="304.3" y="96.9" width="8" height="8" fill="#C24146"/><text x="316.3" y="100.9" dy="0.35em" text-anchor="start" font-family="Poppins-Regular, Poppins" font-size="7" fill="#3B4348">Pas du tout d’accord</text><rect x="43.0" y="109.9" width="8" height="8" fill="#E0E7EB"/><text x="55.0" y="113.9" dy="0.35em" text-anchor="start" font-family="Poppins-Regular, Poppins" font-size="7" fill="#3B4348">Ne sait pas ou autre</text></svg>
