<?xml version="1.0" encoding="UTF-8"?>
<svg xmlns="http://www.w3.org/2000/svg" width="340pt" height="233pt" viewBox="0 0 340 233" data-axe-x="60.0" data-fin-x="280.0"><line x1="60" x2="60" y1="25.00" y2="182.14" stroke="#E6ECEF" stroke-width="0.4"/><line x1="115" x2="115" y1="25.00" y2="182.14" stroke="#E6ECEF" stroke-width="0.4"/><line x1="170" x2="170" y1="25.00" y2="182.14" stroke="#E6ECEF" stroke-width="0.4"/><line x1="225" x2="225" y1="25.00" y2="182.14" stroke="#E6ECEF" stroke-width="0.4"/><line x1="280" x2="280" y1="25.00" y2="182.14" stroke="#E6ECEF" stroke-width="0.4"/><text x="60.0" y="15.5" dy="0.35em" text-anchor="start" font-family="Poppins-Bold, Poppins" font-weight="700" font-size="7" fill="#0B4862">Tranche d’âge</text><rect x="60.00" y="25.00" width="45.83" height="13" fill="#007777"/><text x="82.9" y="31.5" dy="0.35em" text-anchor="middle" font-family="Poppins-Regular, Poppins" font-size="6.5" fill="#FFFFFF">21</text><rect x="105.83" y="25.00" width="89.66" height="13" fill="#32C2C2"/><text x="150.7" y="31.5" dy="0.35em" text-anchor="middle" font-family="Poppins-Regular, Poppins" font-size="6.5" fill="#3B4348">41</text><rect x="195.50" y="25.00" width="46.11" height="13" fill="#EBBF95"/><text x="218.5" y="31.5" dy="0.35em" text-anchor="middle" font-family="Poppins-Regular, Poppins" font-size="6.5" fill="#3B4348">21</text><rect x="241.60" y="25.00" width="33.40" height="13" fill="#C24146"/><text x="258.3" y="31.5" dy="0.35em" text-anchor="middle" font-family="Poppins-Regular, Poppins" font-size="6.5" fill="#FFFFFF">15</text><rect x="275.00" y="25.00" width="5.00" height="13" fill="#E0E7EB"/><text x="54.0" y="31.5" dy="0.35em" text-anchor="end" font-family="Poppins-Regular, Poppins" font-size="7" fill="#3B4348">&lt;35</text><rect x="60.00" y="41.64" width="46.05" height="13" fill="#007777"/><text x="83.0" y="48.1" dy="0.35em" text-anchor="middle" font-family="Poppins-Regular, Poppins" font-size="6.5" fill="#FFFFFF">21</text><rect x="106.05" y="41.64" width="88.05" height="13" fill="#32C2C2"/><text x="150.1" y="48.1" dy="0.35em" text-anchor="middle" font-family="Poppins-Regular, Poppins" font-size="6.5" fill="#3B4348">40</text><rect x="194.10" y="41.64" width="45.00" height="13" fill="#EBBF95"/><text x="216.6" y="48.1" dy="0.35em" text-anchor="middle" font-family="Poppins-Regular, Poppins" font-size="6.5" fill="#3B4348">20</text><rect x="239.10" y="41.64" width="34.77" height="13" fill="#C24146"/><text x="256.5" y="48.1" dy="0.35em" text-anchor="middle" font-family="Poppins-Regular, Poppins" font-size="6.5" fill="#FFFFFF">16</text><rect x="273.87" y="41.64" width="6.14" height="13" fill="#E0E7EB"/><text x="54.0" y="48.1" dy="0.35em" text-anchor="end" font-family="Poppins-Regular, Poppins" font-size="7" fill="#3B4348">35-44</text><rect x="60.00" y="58.28" width="49.47" height="13" fill="#007777"/><text x="84.7" y="64.8" dy="0.35em" text-anchor="middle" font-family="Poppins-Regular, Poppins" font-size="6.5" fill="#FFFFFF">22</text><rect x="109.47" y="58.28" width="91.68" height="13" fill="#32C2C2"/><text x="155.3" y="64.8" dy="0.35em" text-anchor="middle" font-family="Poppins-Regular, Poppins" font-size="6.5" fill="#3B4348">42</text><rect x="201.15" y="58.28" width="43.77" height="13" fill="#EBBF95"/><text x="223.0" y="64.8" dy="0.35em" text-anchor="middle" font-family="Poppins-Regular, Poppins" font-size="6.5" fill="#3B4348">20</text><rect x="244.92" y="58.28" width="30.45" height="13" fill="#C24146"/><text x="260.1" y="64.8" dy="0.35em" text-anchor="middle" font-family="Poppins-Regular, Poppins" font-size="6.5" fill="#FFFFFF">14</text><rect x="275.37" y="58.28" width="4.63" height="13" fill="#E0E7EB"/><text x="54.0" y="64.8" dy="0.35em" text-anchor="end" font-family="Poppins-Regular, Poppins" font-size="7" fill="#3B4348">45-54</text><rect x="60.00" y="74.92" width="46.81" height="13" fill="#007777"/><text x="83.4" y="81.4" dy="0.35em" text-anchor="middle" font-family="Poppins-Regular, Poppins" font-size="6.5" fill="#FFFFFF">21</text><rect x="106.81" y="74.92" width="90.68" height="13" fill="#32C2C2"/><text x="152.1" y="81.4" dy="0.35em" text-anchor="middle" font-family="Poppins-Regular, Poppins" font-size="6.5" fill="#3B4348">41</text><rect x="197.49" y="74.92" width="39.19" height="13" fill="#EBBF95"/><text x="217.1" y="81.4" dy="0.35em" text-anchor="middle" font-family="Poppins-Regular, Poppins" font-size="6.5" fill="#3B4348">18</text><rect x="236.68" y="74.92" width="36.58" height="13" fill="#C24146"/><text x="255.0" y="81.4" dy="0.35em" text-anchor="middle" font-family="Poppins-Regular, Poppins" font-size="6.5" fill="#FFFFFF">17</text><rect x="273.26" y="74.92" width="6.74" height="13" fill="#E0E7EB"/><text x="54.0" y="81.4" dy="0.35em" text-anchor="end" font-family="Poppins-Regular, Poppins" font-size="7" fill="#3B4348">55+</text><text x="60.0" y="109.7" dy="0.35em" text-anchor="start" font-family="Poppins-Bold, Poppins" font-weight="700" font-size="7" fill="#0B4862">Niveau de diplôme</text><rect x="60.00" y="119.22" width="48.17" height="13" fill="#007777"/><text x="84.1" y="125.7" dy="0.35em" text-anchor="middle" font-family="Poppins-Regular, Poppins" font-size="6.5" fill="#FFFFFF">22</text><rect x="108.17" y="119.22" width="80.86" height="13" fill="#32C2C2"/><text x="148.6" y="125.7" dy="0.35em" text-anchor="middle" font-family="Poppins-Regular, Poppins" font-size="6.5" fill="#3B4348">37</text><rect x="189.03" y="119.22" width="40.13" height="13" fill="#EBBF95"/><text x="209.1" y="125.7" dy="0.35em" text-anchor="middle" font-family="Poppins-Regular, Poppins" font-size="6.5" fill="#3B4348">18</text><rect x="229.16" y="119.22" width="44.10" height="13" fill="#C24146"/><text x="251.2" y="125.7" dy="0.35em" text-anchor="middle" font-family="Poppins-Regular, Poppins" font-size="6.5" fill="#FFFFFF">20</text><rect x="273.26" y="119.22" width="6.74" height="13" fill="#E0E7EB"/><text x="54.0" y="122.0" dy="0.35em" text-anchor="end" font-family="Poppins-Regular, Poppins" font-size="7" fill="#3B4348">Bac ou</text><text x="54.0" y="129.4" dy="0.35em" text-anchor="end" font-family="Poppins-Regular, Poppins" font-size="7" fill="#3B4348">moins</text><rect x="60.00" y="135.86" width="40.26" height="13" fill="#007777"/><text x="80.1" y="142.4" dy="0.35em" text-anchor="middle" font-family="Poppins-Regular, Poppins" font-size="6.5" fill="#FFFFFF">18</text><rect x="100.26" y="135.86" width="99.86" height="13" fill="#32C2C2"/><text x="150.2" y="142.4" dy="0.35em" text-anchor="middle" font-family="Poppins-Regular, Poppins" font-size="6.5" fill="#3B4348">45</text><rect x="200.13" y="135.86" width="40.54" height="13" fill="#EBBF95"/><text x="220.4" y="142.4" dy="0.35em" text-anchor="middle" font-family="Poppins-Regular, Poppins" font-size="6.5" fill="#3B4348">18</text><rect x="240.67" y="135.86" width="34.22" height="13" fill="#C24146"/><text x="257.8" y="142.4" dy="0.35em" text-anchor="middle" font-family="Poppins-Regular, Poppins" font-size="6.5" fill="#FFFFFF">16</text><rect x="274.89" y="135.86" width="5.11" height="13" fill="#E0E7EB"/><text x="54.0" y="142.4" dy="0.35em" text-anchor="end" font-family="Poppins-Regular, Poppins" font-size="7" fill="#3B4348">Bac+2</text><rect x="60.00" y="152.50" width="41.28" height="13" fill="#007777"/><text x="80.6" y="159.0" dy="0.35em" text-anchor="middle" font-family="Poppins-Regular, Poppins" font-size="6.5" fill="#FFFFFF">19</text><rect x="101.28" y="152.50" width="94.95" height="13" fill="#32C2C2"/><text x="148.8" y="159.0" dy="0.35em" text-anchor="middle" font-family="Poppins-Regular, Poppins" font-size="6.5" fill="#3B4348">43</text><rect x="196.23" y="152.50" width="48.40" height="13" fill="#EBBF95"/><text x="220.4" y="159.0" dy="0.35em" text-anchor="middle" font-family="Poppins-Regular, Poppins" font-size="6.5" fill="#3B4348">22</text><rect x="244.63" y="152.50" width="30.45" height="13" fill="#C24146"/><text x="259.9" y="159.0" dy="0.35em" text-anchor="middle" font-family="Poppins-Regular, Poppins" font-size="6.5" fill="#FFFFFF">14</text><rect x="275.08" y="152.50" width="4.92" height="13" fill="#E0E7EB"/><text x="54.0" y="159.0" dy="0.35em" text-anchor="end" font-family="Poppins-Regular, Poppins" font-size="7" fill="#3B4348">Bac+3/4</text><rect x="60.00" y="169.14" width="53.87" height="13" fill="#007777"/><text x="86.9" y="175.6" dy="0.35em" text-anchor="middle" font-family="Poppins-Regular, Poppins" font-size="6.5" fill="#FFFFFF">24</text><rect x="113.87" y="169.14" width="95.23" height="13" fill="#32C2C2"/><text x="161.5" y="175.6" dy="0.35em" text-anchor="middle" font-family="Poppins-Regular, Poppins" font-size="6.5" fill="#3B4348">43</text><rect x="209.10" y="169.14" width="44.87" height="13" fill="#EBBF95"/><text x="231.5" y="175.6" dy="0.35em" text-anchor="middle" font-family="Poppins-Regular, Poppins" font-size="6.5" fill="#3B4348">20</text><rect x="253.97" y="169.14" width="21.14" height="13" fill="#C24146"/><text x="264.5" y="175.6" dy="0.35em" text-anchor="middle" font-family="Poppins-Regular, Poppins" font-size="6.5" fill="#FFFFFF">10</text><rect x="275.11" y="169.14" width="4.89" height="13" fill="#E0E7EB"/><text x="54.0" y="171.9" dy="0.35em" text-anchor="end" font-family="Poppins-Regular, Poppins" font-size="7" fill="#3B4348">Bac+5</text><text x="54.0" y="179.3" dy="0.35em" text-anchor="end" font-family="Poppins-Regular, Poppins" font-size="7" fill="#3B4348">ou plus</text><line x1="60" x2="280" y1="187.77999999999997" y2="187.77999999999997" stroke="#3B4348" stroke-width="0.6"/><line x1="60" x2="60" y1="187.77999999999997" y2="190.27999999999997" stroke="#3B4348" stroke-width="0.6"/><text x="60.0" y="195.8" dy="0.35em" text-anchor="middle" font-family="Poppins-Regular, Poppins" font-size="7" fill="#3B4348">0</text><line x1="115" x2="115" y1="187.77999999999997" y2="190.27999999999997" stroke="#3B4348" stroke-width="0.6"/><text x="115.0" y="195.8" dy="0.35em" text-anchor="middle" font-family="Poppins-Regular, Poppins" font-size="7" fill="#3B4348">25</text><line x1="170" x2="170" y1="187.77999999999997" y2="190.27999999999997" stroke="#3B4348" stroke-width="0.6"/><text x="170.0" y="195.8" dy="0.35em" text-anchor="middle" font-family="Poppins-Regular, Poppins" font-size="7" fill="#3B4348">50</text><line x1="225" x2="225" y1="187.77999999999997" y2="190.27999999999997" stroke="#3B4348" stroke-width="0.6"/><text x="225.0" y="195.8" dy="0.35em" text-anchor="middle" font-family="Poppins-Regular, Poppins" font-size="7" fill="#3B4348">75</text><line x1="280" x2="280" y1="187.77999999999997" y2="190.27999999999997" stroke="#3B4348" stroke-width="0.6"/><text x="280.0" y="195.8" dy="0.35em" text-anchor="middle" font-family="Poppins-Regular, Poppins" font-size="7" fill="#3B4348">100</text><rect x="60.0" y="207.8" width="8" height="8" fill="#007777"/><text x="72.0" y="211.8" dy="0.35em" text-anchor="start" font-family="Poppins-Regular, Poppins" font-size="7" fill="#3B4348">Oui</text><rect x="95.7" y="207.8" width="8" height="8" fill="#32C2C2"/><text x="107.7" y="211.8" dy="0.35em" text-anchor="start" font-family="Poppins-Regular, Poppins" font-size="7" fill="#3B4348">Plutôt oui</text><rect x="152.1" y="207.8" width="8" height="8" fill="#EBBF95"/><text x="164.1" y="211.8" dy="0.35em" text-anchor="start" font-family="Poppins-Regular, Poppins" font-size="7" fill="#3B4348">Plutôt non</text><rect x="211.2" y="207.8" width="8" height="8" fill="#C24146"/><text x="223.2" y="211.8" dy="0.35em" text-anchor="start" font-family="Poppins-Regular, Poppins" font-size="7" fill="#3B4348">Non</text><rect x="60.0" y="220.8" width="8" height="8" fill="#E0E7EB"/><text x="72.0" y="224.8" dy="0.35em" text-anchor="start" font-family="Poppins-Regular, Poppins" font-size="7" fill="#3B4348">Ne sait pas ou autre</text></svg>
