<?xml version="1.0" encoding="UTF-8"?>
<svg xmlns="http://www.w3.org/2000/svg" width="471pt" height="245pt" viewBox="0 0 471 245" data-axe-x="90.0" data-fin-x="441.5"><line x1="90" x2="90" y1="26" y2="199" stroke="#E6ECEF" stroke-width="0.4"/><line x1="160.29680000000002" x2="160.29680000000002" y1="26" y2="199" stroke="#E6ECEF" stroke-width="0.4"/><line x1="230.5936" x2="230.5936" y1="26" y2="199" stroke="#E6ECEF" stroke-width="0.4"/><line x1="300.8904" x2="300.8904" y1="26" y2="199" stroke="#E6ECEF" stroke-width="0.4"/><line x1="371.1872" x2="371.1872" y1="26" y2="199" stroke="#E6ECEF" stroke-width="0.4"/><line x1="441.484" x2="441.484" y1="26" y2="199" stroke="#E6ECEF" stroke-width="0.4"/><text x="90.0" y="14.0" dy="0.35em" text-anchor="start" font-family="Poppins-Bold, Poppins" font-weight="700" font-size="7" fill="#0B4862">Part de réponses positives (oui ou plutôt oui)</text><text x="84.0" y="29.1" dy="0.35em" text-anchor="end" font-family="Poppins-Regular, Poppins" font-size="7" fill="#3B4348">Contacts publics</text><text x="84.0" y="36.5" dy="0.35em" text-anchor="end" font-family="Poppins-Regular, Poppins" font-size="7" fill="#3B4348">et partenaires</text><text x="84.0" y="43.9" dy="0.35em" text-anchor="end" font-family="Poppins-Regular, Poppins" font-size="7" fill="#3B4348">extérieurs</text><rect x="90.00" y="26.00" width="288.22" height="6" fill="#E08DBC"/><text x="381.2" y="29.0" dy="0.35em" text-anchor="start" font-family="Poppins-Regular, Poppins" font-size="6.5" fill="#3B4348">82 %</text><rect x="90.00" y="33.50" width="309.31" height="6" fill="#83BE76"/><text x="402.3" y="36.5" dy="0.35em" text-anchor="start" font-family="Poppins-Regular, Poppins" font-size="6.5" fill="#3B4348">88 %</text><rect x="90.00" y="41.00" width="323.37" height="6" fill="#554C9F"/><text x="416.4" y="44.0" dy="0.35em" text-anchor="start" font-family="Poppins-Regular, Poppins" font-size="6.5" fill="#3B4348">92 %</text><text x="84.0" y="59.1" dy="0.35em" text-anchor="end" font-family="Poppins-Regular, Poppins" font-size="7" fill="#3B4348">Missions et</text><text x="84.0" y="66.5" dy="0.35em" text-anchor="end" font-family="Poppins-Regular, Poppins" font-size="7" fill="#3B4348">tâches à</text><text x="84.0" y="73.9" dy="0.35em" text-anchor="end" font-family="Poppins-Regular, Poppins" font-size="7" fill="#3B4348">effectuer</text><rect x="90.00" y="56.00" width="281.19" height="6" fill="#E08DBC"/><text x="374.2" y="59.0" dy="0.35em" text-anchor="start" font-family="Poppins-Regular, Poppins" font-size="6.5" fill="#3B4348">80 %</text><rect x="90.00" y="63.50" width="295.25" height="6" fill="#83BE76"/><text x="388.2" y="66.5" dy="0.35em" text-anchor="start" font-family="Poppins-Regular, Poppins" font-size="6.5" fill="#3B4348">84 %</text><rect x="90.00" y="71.00" width="309.31" height="6" fill="#554C9F"/><text x="402.3" y="74.0" dy="0.35em" text-anchor="start" font-family="Poppins-Regular, Poppins" font-size="6.5" fill="#3B4348">88 %</text><text x="84.0" y="92.8" dy="0.35em" text-anchor="end" font-family="Poppins-Regular, Poppins" font-size="7" fill="#3B4348">Relations</text><text x="84.0" y="100.2" dy="0.35em" text-anchor="end" font-family="Poppins-Regular, Poppins" font-size="7" fill="#3B4348">collègues</text><rect x="90.00" y="86.00" width="277.67" height="6" fill="#E08DBC"/><text x="370.7" y="89.0" dy="0.35em" text-anchor="start" font-family="Poppins-Regular, Poppins" font-size="6.5" fill="#3B4348">79 %</text><rect x="90.00" y="93.50" width="281.19" height="6" fill="#83BE76"/><text x="374.2" y="96.5" dy="0.35em" text-anchor="start" font-family="Poppins-Regular, Poppins" font-size="6.5" fill="#3B4348">80 %</text><rect x="90.00" y="101.00" width="281.19" height="6" fill="#554C9F"/><text x="374.2" y="104.0" dy="0.35em" text-anchor="start" font-family="Poppins-Regular, Poppins" font-size="6.5" fill="#3B4348">80 %</text><text x="84.0" y="122.8" dy="0.35em" text-anchor="end" font-family="Poppins-Regular, Poppins" font-size="7" fill="#3B4348">Autonomie au</text><text x="84.0" y="130.2" dy="0.35em" text-anchor="end" font-family="Poppins-Regular, Poppins" font-size="7" fill="#3B4348">travail</text><rect x="90.00" y="116.00" width="249.55" height="6" fill="#E08DBC"/><text x="342.6" y="119.0" dy="0.35em" text-anchor="start" font-family="Poppins-Regular, Poppins" font-size="6.5" fill="#3B4348">71 %</text><rect x="90.00" y="123.50" width="249.55" height="6" fill="#83BE76"/><text x="342.6" y="126.5" dy="0.35em" text-anchor="start" font-family="Poppins-Regular, Poppins" font-size="6.5" fill="#3B4348">71 %</text><rect x="90.00" y="131.00" width="246.04" height="6" fill="#554C9F"/><text x="339.0" y="134.0" dy="0.35em" text-anchor="start" font-family="Poppins-Regular, Poppins" font-size="6.5" fill="#3B4348">70 %</text><text x="84.0" y="156.5" dy="0.35em" text-anchor="end" font-family="Poppins-Regular, Poppins" font-size="7" fill="#3B4348">Rémunération</text><rect x="90.00" y="146.00" width="130.05" height="6" fill="#E08DBC"/><text x="223.0" y="149.0" dy="0.35em" text-anchor="start" font-family="Poppins-Regular, Poppins" font-size="6.5" fill="#3B4348">37 %</text><rect x="90.00" y="153.50" width="133.56" height="6" fill="#83BE76"/><text x="226.6" y="156.5" dy="0.35em" text-anchor="start" font-family="Poppins-Regular, Poppins" font-size="6.5" fill="#3B4348">38 %</text><rect x="90.00" y="161.00" width="123.02" height="6" fill="#554C9F"/><text x="216.0" y="164.0" dy="0.35em" text-anchor="start" font-family="Poppins-Regular, Poppins" font-size="6.5" fill="#3B4348">35 %</text><text x="84.0" y="182.8" dy="0.35em" text-anchor="end" font-family="Poppins-Regular, Poppins" font-size="7" fill="#3B4348">Reconnaissance</text><text x="84.0" y="190.2" dy="0.35em" text-anchor="end" font-family="Poppins-Regular, Poppins" font-size="7" fill="#3B4348">sociale</text><rect x="90.00" y="176.00" width="87.87" height="6" fill="#E08DBC"/><text x="180.9" y="179.0" dy="0.35em" text-anchor="start" font-family="Poppins-Regular, Poppins" font-size="6.5" fill="#3B4348">25 %</text><rect x="90.00" y="183.50" width="119.50" height="6" fill="#83BE76"/><text x="212.5" y="186.5" dy="0.35em" text-anchor="start" font-family="Poppins-Regular, Poppins" font-size="6.5" fill="#3B4348">34 %</text><rect x="90.00" y="191.00" width="126.53" height="6" fill="#554C9F"/><text x="219.5" y="194.0" dy="0.35em" text-anchor="start" font-family="Poppins-Regular, Poppins" font-size="6.5" fill="#3B4348">36 %</text><line x1="90" x2="441.484" y1="200" y2="200" stroke="#3B4348" stroke-width="0.6"/><line x1="90" x2="90" y1="200" y2="202.5" stroke="#3B4348" stroke-width="0.6"/><text x="90.0" y="208.0" dy="0.35em" text-anchor="middle" font-family="Poppins-Regular, Poppins" font-size="7" fill="#3B4348">0</text><line x1="160.29680000000002" x2="160.29680000000002" y1="200" y2="202.5" stroke="#3B4348" stroke-width="0.6"/><text x="160.3" y="208.0" dy="0.35em" text-anchor="middle" font-family="Poppins-Regular, Poppins" font-size="7" fill="#3B4348">20</text><line x1="230.5936" x2="230.5936" y1="200" y2="202.5" stroke="#3B4348" stroke-width="0.6"/><text x="230.6" y="208.0" dy="0.35em" text-anchor="middle" font-family="Poppins-Regular, Poppins" font-size="7" fill="#3B4348">40</text><line x1="300.8904" x2="300.8904" y1="200" y2="202.5" stroke="#3B4348" stroke-width="0.6"/><text x="300.9" y="208.0" dy="0.35em" text-anchor="middle" font-family="Poppins-Regular, Poppins" font-size="7" fill="#3B4348">60</text><line x1="371.1872" x2="371.1872" y1="200" y2="202.5" stroke="#3B4348" stroke-width="0.6"/><text x="371.2" y="208.0" dy="0.35em" text-anchor="middle" font-family="Poppins-Regular, Poppins" font-size="7" fill="#3B4348">80</text><line x1="441.484" x2="441.484" y1="200" y2="202.5" stroke="#3B4348" stroke-width="0.6"/><text x="441.5" y="208.0" dy="0.35em" text-anchor="middle" font-family="Poppins-Regular, Poppins" font-size="7" fill="#3B4348">100</text><text x="90.0" y="224.0" dy="0.35em" text-anchor="start" font-family="Poppins-Bold, Poppins" font-weight="700" font-size="7" fill="#0B4862">Versant de la FP</text><rect x="90.0" y="233.0" width="8" height="8" fill="#E08DBC"/><text x="102.0" y="237.0" dy="0.35em" text-anchor="start" font-family="Poppins-Regular, Poppins" font-size="7" fill="#3B4348">FPE</text><rect x="125.2" y="233.0" width="8" height="8" fill="#83BE76"/><text x="137.2" y="237.0" dy="0.35em" text-anchor="start" font-family="Poppins-Regular, Poppins" font-size="7" fill="#3B4348">FPT</text><rect x="160.5" y="233.0" width="8" height="8" fill="#554C9F"/><text x="172.5" y="237.0" dy="0.35em" text-anchor="start" font-family="Poppins-Regular, Poppins" font-size="7" fill="#3B4348">FPH</text></svg>
